<svg version="1.1" xmlns="http://www.w3.org/2000/svg" xmlns:xlink="http://www.w3.org/1999/xlink" width="516.57371" height="210.07843" viewBox="0,0,516.57371,210.07843"><defs><linearGradient x1="73.54545" y1="175.09328" x2="61.7501" y2="190.68795" gradientUnits="userSpaceOnUse" id="color-1"><stop offset="0" stop-color="#759fed"/><stop offset="1" stop-color="#52edae"/></linearGradient><linearGradient x1="39.36036" y1="220.34496" x2="27.56504" y2="235.93965" gradientUnits="userSpaceOnUse" id="color-2"><stop offset="0" stop-color="#51edae"/><stop offset="1" stop-color="#f9f88a"/></linearGradient><linearGradient x1="73.54545" y1="175.09328" x2="61.7501" y2="190.68795" gradientUnits="userSpaceOnUse" id="color-3"><stop offset="0" stop-color="#759fed"/><stop offset="1" stop-color="#52edae"/></linearGradient><linearGradient x1="39.36036" y1="220.34496" x2="27.56504" y2="235.93965" gradientUnits="userSpaceOnUse" id="color-4"><stop offset="0" stop-color="#51edae"/><stop offset="1" stop-color="#f9f88a"/></linearGradient></defs><g transform="translate(16.37707,-74.96078)"><g data-paper-data="{&quot;isPaintingLayer&quot;:true}" stroke-dasharray="" stroke-dashoffset="0" style="mix-blend-mode: normal"><g fill-rule="evenodd" stroke="#ffffff" stroke-width="10"><path d="M145.0323,80.42397l-6.12403,17.91763l15.1464,11.35954l-18.92798,-0.28888l-6.12685,17.91557l-5.57549,-18.09265l-18.93006,-0.28606l15.48316,-10.89846l-5.57755,-18.08988l15.1464,11.35954z" fill="#759fed" stroke-linecap="butt" stroke-linejoin="round" stroke-miterlimit="2"/><path d="M1.43459,253.35691l13.99661,-1.27872l1.27869,13.99663l-13.99661,1.27869z" data-paper-data="{&quot;index&quot;:null}" fill="#faf28a" stroke-linecap="butt" stroke-linejoin="round" stroke-miterlimit="2"/><path d="M117.51994,117.13361l2.75982,6.62483l-4.35831,5.7025l-7.117,-0.92374l-2.75982,-6.62481l4.35831,-5.70252z" fill="#759fed" stroke-linecap="butt" stroke-linejoin="round" stroke-miterlimit="2"/><path d="M114.67538,132.68009c0.67152,3.11427 -0.00371,6.49582 -2.13658,9.18628c-3.78304,4.77202 -10.72702,5.57475 -15.49908,1.79176c-4.77202,-3.78304 -5.57478,-10.72705 -1.79174,-15.49908c2.05579,-2.59326 5.04502,-4.01498 8.11461,-4.16494c-1.83081,1.52773 -2.88056,3.91803 -2.58675,6.45956c0.46333,4.00792 4.09298,6.88681 8.10088,6.4235c2.62372,-0.3033 4.76245,-1.96325 5.79861,-4.19706z" fill="#759fed" stroke-linecap="butt" stroke-linejoin="round" stroke-miterlimit="2"/><path d="M80.94451,181.23495l-15.58914,-11.7555l11.7555,-15.58917l15.58914,11.7555z" fill="#759fed" stroke-linecap="butt" stroke-linejoin="round" stroke-miterlimit="2"/><path d="M94.75236,146.71104l-2.22958,19.17219l-15.59034,-11.75637z" fill="#759fed" stroke-linecap="round" stroke-linejoin="miter" stroke-miterlimit="1.5"/><path d="M69.56462,196.56296l-15.58914,-11.7555l11.7555,-15.58917l15.58917,11.75548z" fill="url(#color-1)" stroke-linecap="butt" stroke-linejoin="round" stroke-miterlimit="2"/><path d="M31.54589,214.46999l15.58914,11.7555l-11.75548,15.58914l-15.58914,-11.7555z" data-paper-data="{&quot;index&quot;:null}" fill="url(#color-2)" stroke-linecap="butt" stroke-linejoin="round" stroke-miterlimit="2"/><path d="M17.73804,248.99391l2.2296,-19.17219l15.59034,11.75637z" data-paper-data="{&quot;index&quot;:null}" fill="#faf28a" stroke-linecap="round" stroke-linejoin="miter" stroke-miterlimit="1.5"/><path d="M42.92581,199.49515l15.58917,11.75548l-11.75548,15.58914l-15.58917,-11.75548z" data-paper-data="{&quot;index&quot;:null}" fill="#51edae" stroke-linecap="butt" stroke-linejoin="round" stroke-miterlimit="2"/><path d="M54.57635,184.30457l15.58917,11.75548l-11.7555,15.58917l-15.58914,-11.7555z" data-paper-data="{&quot;index&quot;:null}" fill="#51edae" stroke-linecap="butt" stroke-linejoin="round" stroke-miterlimit="2"/><path d="M158.26268,85.73687c0,3.01299 2.44253,5.45552 5.45557,5.45554c-3.01304,0.00002 -5.45557,2.44258 -5.45557,5.45557c0,-3.01299 -2.44253,-5.45554 -5.45554,-5.45557c3.01304,-0.00002 5.45554,-2.44255 5.45554,-5.45554z" fill="#759fed" stroke-linecap="butt" stroke-linejoin="round" stroke-miterlimit="10"/><path d="M99.82392,90.06291c0,3.01299 2.44253,5.45552 5.45557,5.45554c-3.01304,0.00002 -5.45557,2.44255 -5.45557,5.45554c0,-3.01301 -2.44253,-5.45554 -5.45554,-5.45554c3.01304,-0.00002 5.45554,-2.44255 5.45554,-5.45554z" fill="#759fed" stroke-linecap="butt" stroke-linejoin="round" stroke-miterlimit="10"/><path d="M145.57251,117.95839c0,3.01301 2.44253,5.45552 5.45554,5.45557c-3.01304,0.00002 -5.45554,2.44255 -5.45554,5.45554c0,-3.01301 -2.44253,-5.45552 -5.45557,-5.45554c3.01304,-0.00002 5.45557,-2.44255 5.45557,-5.45557z" fill="#759fed" stroke-linecap="butt" stroke-linejoin="round" stroke-miterlimit="10"/><path d="M22.80666,256.01827l2.68779,-2.51527l2.51527,2.68781l-2.68781,2.5153z" data-paper-data="{&quot;index&quot;:null}" fill="#faf28a" stroke-linecap="butt" stroke-linejoin="round" stroke-miterlimit="2"/><path d="M-11.37707,257.97081l2.68781,-2.51527l2.51525,2.68781l-2.68779,2.51525z" data-paper-data="{&quot;index&quot;:null}" fill="#faf28a" stroke-linecap="butt" stroke-linejoin="round" stroke-miterlimit="2"/><path d="M4.8004,278.88758l1.15164,-3.49636l3.49638,1.15162l-1.15164,3.49638z" data-paper-data="{&quot;index&quot;:null}" fill="#faf28a" stroke-linecap="butt" stroke-linejoin="round" stroke-miterlimit="2"/></g><g fill-rule="evenodd" stroke="none"><path d="M145.0323,80.42397l-6.12403,17.91763l15.1464,11.35954l-18.92798,-0.28888l-6.12685,17.91557l-5.57549,-18.09265l-18.93006,-0.28606l15.48316,-10.89846l-5.57755,-18.08988l15.1464,11.35954z" fill="#759fed" stroke-width="1" stroke-linecap="butt" stroke-linejoin="round" stroke-miterlimit="2"/><path d="M1.43459,253.35691l13.99661,-1.27872l1.27869,13.99663l-13.99661,1.27869z" data-paper-data="{&quot;index&quot;:null}" fill="#faf28a" stroke-width="1" stroke-linecap="butt" stroke-linejoin="round" stroke-miterlimit="2"/><path d="M117.51994,117.13361l2.75982,6.62483l-4.35831,5.7025l-7.117,-0.92374l-2.75982,-6.62481l4.35831,-5.70252z" fill="#759fed" stroke-width="1" stroke-linecap="butt" stroke-linejoin="round" stroke-miterlimit="2"/><path d="M114.67538,132.68009c0.67152,3.11427 -0.00371,6.49582 -2.13658,9.18628c-3.78304,4.77202 -10.72702,5.57475 -15.49908,1.79176c-4.77202,-3.78304 -5.57478,-10.72705 -1.79174,-15.49908c2.05579,-2.59326 5.04502,-4.01498 8.11461,-4.16494c-1.83081,1.52773 -2.88056,3.91803 -2.58675,6.45956c0.46333,4.00792 4.09298,6.88681 8.10088,6.4235c2.62372,-0.3033 4.76245,-1.96325 5.79861,-4.19706z" fill="#759fed" stroke-width="1" stroke-linecap="butt" stroke-linejoin="round" stroke-miterlimit="2"/><path d="M80.94451,181.23495l-15.58914,-11.7555l11.7555,-15.58917l15.58914,11.7555z" fill="#759fed" stroke-width="1" stroke-linecap="butt" stroke-linejoin="round" stroke-miterlimit="2"/><path d="M94.75236,146.71104l-2.22958,19.17219l-15.59034,-11.75637z" fill="#759fed" stroke-width="1" stroke-linecap="round" stroke-linejoin="miter" stroke-miterlimit="1.5"/><path d="M69.56462,196.56296l-15.58914,-11.7555l11.7555,-15.58917l15.58917,11.75548z" fill="url(#color-3)" stroke-width="1" stroke-linecap="butt" stroke-linejoin="round" stroke-miterlimit="2"/><path d="M31.54589,214.46999l15.58914,11.7555l-11.75548,15.58914l-15.58914,-11.7555z" data-paper-data="{&quot;index&quot;:null}" fill="url(#color-4)" stroke-width="1" stroke-linecap="butt" stroke-linejoin="round" stroke-miterlimit="2"/><path d="M17.73804,248.99391l2.2296,-19.17219l15.59034,11.75637z" data-paper-data="{&quot;index&quot;:null}" fill="#faf28a" stroke-width="1" stroke-linecap="round" stroke-linejoin="miter" stroke-miterlimit="1.5"/><path d="M42.92581,199.49515l15.58917,11.75548l-11.75548,15.58914l-15.58917,-11.75548z" data-paper-data="{&quot;index&quot;:null}" fill="#51edae" stroke-width="1" stroke-linecap="butt" stroke-linejoin="round" stroke-miterlimit="2"/><path d="M54.57635,184.30457l15.58917,11.75548l-11.7555,15.58917l-15.58914,-11.7555z" data-paper-data="{&quot;index&quot;:null}" fill="#51edae" stroke-width="1" stroke-linecap="butt" stroke-linejoin="round" stroke-miterlimit="2"/><path d="M158.26268,85.73687c0,3.01299 2.44253,5.45552 5.45557,5.45554c-3.01304,0.00002 -5.45557,2.44258 -5.45557,5.45557c0,-3.01299 -2.44253,-5.45554 -5.45554,-5.45557c3.01304,-0.00002 5.45554,-2.44255 5.45554,-5.45554z" fill="#759fed" stroke-width="0.17306" stroke-linecap="butt" stroke-linejoin="round" stroke-miterlimit="10"/><path d="M99.82392,90.06291c0,3.01299 2.44253,5.45552 5.45557,5.45554c-3.01304,0.00002 -5.45557,2.44255 -5.45557,5.45554c0,-3.01301 -2.44253,-5.45554 -5.45554,-5.45554c3.01304,-0.00002 5.45554,-2.44255 5.45554,-5.45554z" fill="#759fed" stroke-width="0.17306" stroke-linecap="butt" stroke-linejoin="round" stroke-miterlimit="10"/><path d="M145.57251,117.95839c0,3.01301 2.44253,5.45552 5.45554,5.45557c-3.01304,0.00002 -5.45554,2.44255 -5.45554,5.45554c0,-3.01301 -2.44253,-5.45552 -5.45557,-5.45554c3.01304,-0.00002 5.45557,-2.44255 5.45557,-5.45557z" fill="#759fed" stroke-width="0.17306" stroke-linecap="butt" stroke-linejoin="round" stroke-miterlimit="10"/><path d="M22.80666,256.01827l2.68779,-2.51527l2.51527,2.68781l-2.68781,2.5153z" data-paper-data="{&quot;index&quot;:null}" fill="#faf28a" stroke-width="1" stroke-linecap="butt" stroke-linejoin="round" stroke-miterlimit="2"/><path d="M-11.37707,257.97081l2.68781,-2.51527l2.51525,2.68781l-2.68779,2.51525z" data-paper-data="{&quot;index&quot;:null}" fill="#faf28a" stroke-width="1" stroke-linecap="butt" stroke-linejoin="round" stroke-miterlimit="2"/><path d="M4.8004,278.88758l1.15164,-3.49636l3.49638,1.15162l-1.15164,3.49638z" data-paper-data="{&quot;index&quot;:null}" fill="#faf28a" stroke-width="1" stroke-linecap="butt" stroke-linejoin="round" stroke-miterlimit="2"/></g><g fill="#000000" fill-rule="nonzero" stroke="#000000" stroke-width="20" stroke-linecap="butt" stroke-linejoin="round" stroke-miterlimit="10"><path d="M411.72601,167.74317c2.73334,5.23951 7.97285,8.08764 13.32714,8.08764l-17.87076,19.98473c-4.01512,0 -7.94415,-2.1355 -9.99356,-6.06453z"/><path d="M425.05316,175.8308c2.39138,0 4.78275,-0.45675 6.94695,-1.70983l-19.60929,20.41279c-1.62135,0.93981 -3.41489,1.28178 -5.20842,1.28178z"/><path d="M412.39082,194.53376c6.06692,-3.1614 11.7034,-9.48181 15.12067,-16.23027l24.64553,-25.81969c-4.55557,8.99636 -12.07167,17.42357 -20.15691,21.63717z"/><path d="M452.15702,152.48379l24.94206,39.17792l-30.88224,16.02701l-18.70535,-29.38523z"/><path d="M477.09907,191.66171c1.48026,2.27659 3.98642,3.52967 6.49259,3.52967l-32.50598,15.14459c-1.87962,0 -3.75924,-0.93981 -4.86884,-2.64725z"/><path d="M483.59166,195.19139c1.48026,0 2.84574,-0.34197 4.21361,-1.25308l-33.55819,15.45786c-1.0259,0.68393 -2.0518,0.93981 -3.1614,0.93981z"/><path d="M454.24708,209.39616c2.64725,-1.70744 3.50098,-5.29451 1.79353,-7.94415l34.15603,-18.10511c2.27898,3.52967 1.1383,8.31482 -2.39138,10.59141z"/><path d="M456.04061,201.45201l-20.84324,-32.71403l27.21147,-29.00979l27.78779,43.61871z"/><path d="M435.19737,168.73798c-0.76763,0.25588 -1.53766,0.34197 -2.39138,0.34197l26.41275,-28.89739c1.1383,0 2.1642,-0.11239 3.1901,-0.45436z"/><path d="M432.806,169.07995c-4.69666,0 -8.45591,-3.75924 -8.45591,-8.45591l23.59332,-31.71683c0,6.26541 5.01233,11.27534 11.27534,11.27534z"/><path d="M424.35009,160.62404c0,-1.87962 0.51175,-3.50337 1.53766,-4.95493l24.10507,-33.36688c-1.36548,1.93701 -2.04941,4.10121 -2.04941,6.60498z"/><path d="M425.88775,155.66911c-1.70744,-1.1096 -3.84294,-1.70744 -6.06453,-1.70744l22.08436,-33.93602c2.96052,0 5.80865,0.79633 8.08524,2.27659z"/><path d="M419.82321,153.96166c-6.15062,0 -11.18925,4.95254 -11.27534,11.18925l18.32751,-30.20787c0.11239,-8.31242 6.83216,-14.91741 15.03219,-14.91741z"/><path d="M408.54787,165.15092c-0.25588,2.39138 -4.01512,8.02785 -6.57629,9.39572l16.13223,-27.07516c3.41728,-1.82223 8.4296,-9.33833 8.77157,-12.52842z"/><path d="M418.10382,147.47145c-7.40131,3.87164 -10.24944,12.98278 -6.3778,20.2717l-14.53718,22.00784c-2.90552,-5.46669 -0.77002,-12.30124 4.78275,-15.20437z"/><path d="M451.47547,128.90721c0,-4.326 3.52967,-7.74328 7.74328,-7.74328l-26.41275,33.65145c-3.15901,0 -5.80865,2.56116 -5.80865,5.80865z"/><path d="M459.21875,121.16394c4.32839,0 7.74567,3.41728 7.74567,7.74328l-28.34977,31.71683c0,-3.24749 -2.56116,-5.80865 -5.80865,-5.80865z"/><path d="M438.61465,160.62404c0,3.15901 -2.56116,5.80865 -5.80865,5.80865l26.41275,-29.77981c4.32839,0 7.74567,-3.53206 7.74567,-7.74567z"/><path d="M432.806,166.43269c-3.15901,0 -5.80865,-2.64965 -5.80865,-5.80865l24.47813,-31.71683c0,4.21361 3.52967,7.74567 7.74328,7.74567z"/><path d="M468.55708,128.90721c0,-4.326 3.53206,-7.74328 7.74567,-7.74328l-30.68375,33.65145c-3.15901,0 -5.80865,2.56116 -5.80865,5.80865z"/><path d="M476.30274,121.16394c4.32839,0 7.74328,3.41728 7.74328,7.74328l-32.61837,31.71683c0,-3.24749 -2.56356,-5.80865 -5.80865,-5.80865z"/><path d="M484.04602,128.90721c0,4.21361 -3.41489,7.74567 -7.74328,7.74567l-30.68375,29.77981c3.2451,0 5.80865,-2.64965 5.80865,-5.80865z"/><path d="M445.61899,166.43269c-3.15901,0 -5.80865,-2.64965 -5.80865,-5.80865l28.74674,-31.71683c0,4.21361 3.53206,7.74567 7.74567,7.74567z"/><path d="M310.47944,176.05798c0,4.10121 3.1889,7.5161 7.28892,7.74567l8.95044,17.99033c-3.07507,-0.16979 -5.46669,-2.73334 -5.46669,-5.80865z"/><path d="M326.7188,201.79398v2.73334l-8.95044,-17.07921v-3.64446z"/><path d="M317.76835,187.44811c0,4.326 3.53039,7.74328 7.74447,7.74328l7.01439,15.14459c-3.16044,0 -5.80841,-2.56356 -5.80841,-5.80865z"/><path d="M325.51283,195.19139c4.32767,0 7.74447,-3.41728 7.74447,-7.74328l5.07809,17.07921c0,3.2451 -2.56236,5.80865 -5.80818,5.80865z"/><path d="M333.2573,187.44811v-26.08274l5.07809,23.60289v19.55907z"/><path d="M333.2573,161.36537l6.60546,-8.99636l3.42684,25.85078l-4.95421,6.74846z"/><path d="M339.86276,152.36901c1.7084,-2.27659 4.32839,-3.64446 7.17413,-3.64446l1.63331,26.76189c-2.1355,0 -4.09882,1.02351 -5.3806,2.73334z"/><path d="M347.03689,148.72453h21.1852l-3.66359,26.76189h-15.88831z"/><path d="M368.22209,148.72453v38.72356l-3.66359,17.07921v-29.04088z"/><path d="M368.22209,187.44811c0,4.326 3.41489,7.74328 7.74328,7.74328l-5.59821,15.14459c-3.2451,0 -5.80865,-2.56356 -5.80865,-5.80865z"/><path d="M375.96537,195.19139h8.08764l-7.62132,15.14459h-6.06453z"/><path d="M384.05301,195.19139c4.326,0 7.74328,-3.41728 7.74328,-7.74328l-9.55594,17.07921c0,3.2451 -2.56356,5.80865 -5.80865,5.80865z"/><path d="M382.24034,204.52732c0,-3.15901 -2.56356,-5.80865 -5.80865,-5.80865l7.62132,-19.01623c4.326,0 7.74328,3.52967 7.74328,7.74567z"/><path d="M376.43169,198.71867h-0.25588l7.53523,-19.01623h0.34197z"/><path d="M376.17581,198.71867v-34.50756l7.53523,-30.51875v46.01008z"/><path d="M376.17581,164.2111v-0.17218l7.53523,-30.57614v0.22957z"/><path d="M376.17581,164.03893v-0.16979l7.53523,-30.63353v0.22718z"/><path d="M376.17581,163.86914c-0.25588,-6.15062 -5.46669,-10.93337 -11.61731,-10.93337l3.66359,-34.27799c8.20003,0 15.14698,6.3778 15.48895,14.57783z"/><path d="M364.5585,152.93576h-11.27534l-0.09566,-34.27799h15.03458z"/><path d="M353.28316,152.93576c-3.2451,0 -6.23432,1.45157 -8.28612,3.67315l-2.8553,-33.05361c2.73334,-2.96052 6.71738,-4.89754 11.04577,-4.89754z"/><path d="M344.99705,156.60892c-0.33958,0.25588 -0.59784,0.51175 -0.85372,0.93981l-3.14155,-32.74034c0.34149,-0.56915 0.68322,-0.91111 1.13997,-1.25308z"/><path d="M344.14332,157.54873l-5.80794,7.85806l-5.07809,-30.12178l7.74447,-10.47662z"/><path d="M333.2573,135.28501v-13.66672l5.07809,33.53905v10.24944z"/><path d="M338.33539,155.15735c0,-3.24749 -2.56236,-5.80865 -5.80818,-5.80865l-7.01439,-35.47368c4.32767,0 7.74447,3.41728 7.74447,7.74328z"/><path d="M332.52721,149.3487c-3.16044,0 -5.80841,2.56116 -5.80841,5.80865l-8.95044,-33.53905c0,-4.326 3.53039,-7.74328 7.74447,-7.74328z"/><path d="M326.7188,155.15735v4.09882l-8.95044,-32.17119v-5.46669z"/><path d="M326.7188,159.25617c-3.07507,0.08609 -5.46669,2.64965 -5.46669,5.72256l-10.77267,-30.26287c0,-4.09882 3.1889,-7.5161 7.28892,-7.63088z"/><path d="M310.47944,134.71584c0,4.10121 3.1889,7.51849 7.28892,7.74567l8.95044,28.32585c-3.07507,-0.16979 -5.46669,-2.73334 -5.46669,-5.80865z"/><path d="M326.7188,170.78739v19.47537l-8.95044,-21.83566v-25.96557z"/><path d="M326.7188,190.26276c-3.07507,0.08609 -5.46669,2.64725 -5.46669,5.72256l-10.77267,-19.92734c0,-4.09882 3.1889,-7.5161 7.28892,-7.63088z"/><path d="M253.34539,187.7016c0.76883,0.93742 1.7084,1.62135 2.73334,2.13311l-32.49689,-21.97675c-1.36667,-0.68393 -2.61951,-1.59505 -3.64446,-2.84813z"/><path d="M256.07873,189.8347l24.6857,19.30558l-24.26864,-15.54395l-32.91395,-25.73838z"/><path d="M256.49579,193.59634c1.36667,1.0259 3.07507,1.59505 4.6694,1.59505l23.10117,15.14459c-1.19569,0 -2.47699,-0.42806 -3.50193,-1.19569z"/><path d="M261.16519,195.19139c2.27779,0 4.55557,-1.0259 6.03607,-2.96052l21.59222,15.88352c-1.11032,1.45396 -2.81872,2.22159 -4.52711,2.22159z"/><path d="M267.20126,192.23086c2.61951,-3.30249 2.05013,-8.20003 -1.2526,-10.82098l21.90525,18.59056c2.47723,1.96571 2.90433,5.63647 0.93957,8.11394z"/><path d="M287.85391,200.00044l-17.16865,-13.32475l-27.62853,-23.03135l22.89193,17.76554z"/><path d="M243.05673,163.64435l24.71416,-23.57419l21.44969,28.9237l-18.53532,17.68184z"/><path d="M267.77089,140.07013c2.27779,-2.1642 3.75829,-4.89754 4.32767,-7.86045l20.36783,30.8918c-0.4271,2.2192 -1.53742,4.26861 -3.24582,5.89235z"/><path d="M292.4664,163.10151c-1.02494,0.51175 -2.22087,0.76763 -3.41656,0.76763l-21.50684,-30.63353c1.59457,0 3.1889,-0.34197 4.55557,-1.0259z"/><path d="M289.04984,163.86914c-4.61249,0 -8.45639,-3.84294 -8.45639,-8.45591l-24.32556,-33.45297c0,6.15062 5.1252,11.27534 11.2751,11.27534z"/><path d="M256.26789,121.96026c0,-2.96052 1.13901,-5.57908 2.96124,-7.63088l23.58519,35.36128c-1.36667,1.53766 -2.22087,3.50098 -2.22087,5.72256z"/><path d="M282.81432,149.69064c-3.24582,-0.34197 -6.577,0.59784 -9.05423,3.07531l-26.60335,-34.33538c3.30297,-3.30249 7.74447,-4.55557 12.07239,-4.10121z"/><path d="M273.76009,152.76598l-20.07297,19.1334l-33.29418,-27.95758l26.76381,-25.5112z"/><path d="M253.68712,171.89938c-4.52711,4.271 -4.61249,11.35904 -0.34173,15.80222l-33.40801,-22.69177c-5.69458,-5.92105 -5.58076,-15.37416 0.45556,-21.06803z"/><path d="M259.91235,121.96026c0,-4.21361 3.4168,-7.74328 7.63064,-7.74328l21.50684,35.38759c-3.16044,0 -5.72304,2.64725 -5.72304,5.80865z"/><path d="M267.54299,114.21699c4.21384,0 7.74447,3.52967 7.74447,7.74328l19.57079,33.45297c0,-3.1614 -2.64797,-5.80865 -5.80841,-5.80865z"/><path d="M294.85825,155.41323c0,3.15901 -2.64797,5.72256 -5.80841,5.72256l-21.50684,-31.54465c4.21384,0 7.74447,-3.41728 7.74447,-7.63088z"/><path d="M289.04984,161.13579c-3.16044,0 -5.72304,-2.56356 -5.72304,-5.72256l-23.41445,-33.45297c0,4.21361 3.4168,7.63088 7.63064,7.63088z"/><path d="M276.88203,121.96026c0,-4.21361 3.41656,-7.74328 7.6304,-7.74328l17.26454,35.38759c-3.16044,0 -5.72304,2.64725 -5.72304,5.80865z"/><path d="M284.51244,114.21699c4.32791,0 7.74447,3.52967 7.74447,7.74328l15.32848,33.45297c0,-3.1614 -2.5626,-5.80865 -5.80841,-5.80865z"/><path d="M307.5854,155.41323c0,3.15901 -2.5626,5.72256 -5.80841,5.72256l-17.26454,-31.54465c4.32791,0 7.74447,-3.41728 7.74447,-7.63088z"/><path d="M301.77698,161.13579c-3.16044,0 -5.72304,-2.56356 -5.72304,-5.72256l-19.1719,-33.45297c0,4.21361 3.41656,7.63088 7.6304,7.63088z"/></g><path d="M418.10482,147.47197c3.41668,-1.82223 8.42781,-9.33892 8.76946,-12.52782c0.1139,-8.31393 6.83336,-14.91951 15.03339,-14.91951c2.96112,0 5.80837,0.79724 8.08615,2.27779c-1.36667,1.93613 -2.05001,4.10001 -2.05001,6.60558c0,6.26392 5.01113,11.27505 11.27503,11.27505c1.13889,0 2.16391,-0.1139 3.1889,-0.45556l27.78899,43.61959c2.27779,3.53058 1.13889,8.31393 -2.39166,10.59172c-1.36667,0.91111 -2.73334,1.25277 -4.21392,1.25277c-2.50556,0 -5.01113,-1.25279 -6.49168,-3.53056l-24.94177,-39.17794c-4.55557,8.99724 -12.07227,17.42505 -20.15839,21.63899c-2.16391,1.25277 -4.55557,1.70833 -6.94726,1.70833c-5.35279,0 -10.59169,-2.84722 -13.32504,-8.08613c-3.87224,-7.28892 -1.02502,-16.40006 6.3778,-20.2723zM459.21885,136.65243c4.32779,0 7.74447,-3.53053 7.74447,-7.74445c0,-4.32779 -3.41668,-7.74447 -7.74447,-7.74447c-4.21389,0 -7.74447,3.41668 -7.74447,7.74447c0,4.21389 3.53058,7.74445 7.74447,7.74445zM476.30224,136.65243c4.32779,0 7.74447,-3.53053 7.74447,-7.74445c0,-4.32779 -3.41668,-7.74447 -7.74447,-7.74447c-4.21389,0 -7.74447,3.41668 -7.74447,7.74447c0,4.21389 3.53058,7.74445 7.74447,7.74445zM310.47937,176.05841c0,-4.10001 3.1889,-7.51674 7.28892,-7.63057v-25.96676c-4.10001,-0.22778 -7.28892,-3.64446 -7.28892,-7.74447c0,-4.10001 3.1889,-7.51677 7.28892,-7.6306v-5.46669c0,-4.32779 3.53056,-7.74447 7.74447,-7.74447c4.32779,0 7.74447,3.41668 7.74447,7.74447v13.66672l7.74447,-10.47782c0.34168,-0.56943 0.68334,-0.91111 1.13889,-1.25277c2.73334,-2.96112 6.71946,-4.89725 11.04725,-4.89725h15.03339c8.20003,0 15.14729,6.3778 15.48895,14.57783v0.22766v0.22766v46.01128h0.34168c4.32779,0 7.74447,3.53056 7.74447,7.74445c0,4.32779 -3.41668,7.74447 -7.74447,7.74447h-8.08615c-4.32779,0 -7.74447,-3.41668 -7.74447,-7.74447v-38.72236h-21.18341c-2.84722,0 -5.46669,1.3667 -7.17501,3.64446l-6.60558,8.99729v26.08061c0,4.32779 -3.41668,7.74447 -7.74447,7.74447c-4.21389,0 -7.74447,-3.41668 -7.74447,-7.74447v-3.64446c-4.10001,-0.22778 -7.28892,-3.64446 -7.28892,-7.74445zM220.39284,143.94139l26.764,-25.51123c3.30278,-3.30275 7.74447,-4.55555 12.07227,-4.09999c-1.82223,2.05001 -2.96112,4.66947 -2.96112,7.6306c0,6.15 5.12501,11.27501 11.27503,11.27501c1.59445,0 3.1889,-0.34163 4.55557,-1.02499c-0.56943,2.96115 -2.05001,5.69449 -4.32779,7.85837l-24.71399,23.5751l22.89176,17.76673c3.30278,2.61944 3.87224,7.51669 1.25279,10.81947c-1.48055,1.93613 -3.75836,2.96112 -6.03615,2.96112c-1.59445,0 -3.30278,-0.56946 -4.66945,-1.59447l-32.914,-25.73898c-1.36667,-0.68334 -2.61944,-1.59445 -3.64446,-2.8472c-5.69447,-5.92227 -5.58059,-15.37509 0.45556,-21.06953zM267.54302,129.59131c4.21389,0 7.74447,-3.41666 7.74447,-7.63055c0,-4.21394 -3.53058,-7.74447 -7.74447,-7.74447c-4.21389,0 -7.63057,3.53053 -7.63057,7.74447c0,4.21387 3.41668,7.63055 7.63057,7.63055zM284.51251,129.59131c4.32779,0 7.74447,-3.41666 7.74447,-7.63055c0,-4.21394 -3.41668,-7.74447 -7.74447,-7.74447c-4.21389,0 -7.63057,3.53053 -7.63057,7.74447c0,4.21387 3.41668,7.63055 7.63057,7.63055z" fill="#ffffff" fill-rule="nonzero" stroke="#ffffff" stroke-width="10" stroke-linecap="square" stroke-linejoin="round" stroke-miterlimit="10"/><path d="M418.10482,147.47197c3.41668,-1.82223 8.42781,-9.33892 8.76946,-12.52782c0.1139,-8.31393 6.83336,-14.91951 15.03339,-14.91951c2.96112,0 5.80837,0.79724 8.08615,2.27779c-1.36667,1.93613 -2.05001,4.10001 -2.05001,6.60558c0,6.26392 5.01113,11.27505 11.27503,11.27505c1.13889,0 2.16391,-0.1139 3.1889,-0.45556l27.78899,43.61959c2.27779,3.53058 1.13889,8.31393 -2.39166,10.59172c-1.36667,0.91111 -2.73334,1.25277 -4.21392,1.25277c-2.50559,0 -5.01113,-1.25279 -6.49168,-3.53056l-24.94177,-39.17794c-4.55557,8.99724 -12.07227,17.42505 -20.15839,21.63899c-2.16391,1.25277 -4.55557,1.70833 -6.94726,1.70833c-5.35281,0 -10.59169,-2.84722 -13.32506,-8.08613c-3.87221,-7.28892 -1.02499,-16.40006 6.37782,-20.2723zM459.21882,136.65243c4.32779,0 7.74447,-3.53053 7.74447,-7.74445c0,-4.32779 -3.41668,-7.74447 -7.74447,-7.74447c-4.21387,0 -7.74445,3.41668 -7.74445,7.74447c0,4.21389 3.53056,7.74445 7.74445,7.74445zM476.30224,136.65243c4.32777,0 7.74445,-3.53053 7.74445,-7.74445c0,-4.32779 -3.41666,-7.74447 -7.74445,-7.74447c-4.21389,0 -7.74447,3.41668 -7.74447,7.74447c0,4.21389 3.53056,7.74445 7.74447,7.74445zM310.47934,176.05841c0,-4.10001 3.1889,-7.51674 7.28892,-7.63057v-25.96676c-4.10001,-0.22778 -7.28892,-3.64446 -7.28892,-7.74447c0,-4.10001 3.1889,-7.51677 7.28892,-7.6306v-5.46669c0,-4.32779 3.53058,-7.74447 7.74447,-7.74447c4.32779,0 7.74447,3.41668 7.74447,7.74447v13.66672l7.74447,-10.47782c0.34168,-0.56943 0.68331,-0.91111 1.13887,-1.25277c2.73334,-2.96112 6.71946,-4.89725 11.04725,-4.89725h15.03339c8.20003,0 15.14729,6.3778 15.48895,14.57783v0.22766v0.22766v46.01128h0.34168c4.32779,0 7.74447,3.53056 7.74447,7.74445c0,4.32777 -3.41668,7.74447 -7.74447,7.74447h-8.08613c-4.32782,0 -7.74447,-3.41668 -7.74447,-7.74447v-38.72236h-21.18341c-2.84724,0 -5.46669,1.3667 -7.17504,3.64446l-6.60558,8.99729v26.08061c0,4.32779 -3.41668,7.74447 -7.74447,7.74447c-4.21389,0 -7.74447,-3.41668 -7.74447,-7.74447v-3.64446c-4.10001,-0.22778 -7.28892,-3.64446 -7.28892,-7.74445zM220.39282,143.94139l26.764,-25.51123c3.30278,-3.30275 7.74447,-4.55555 12.07227,-4.09999c-1.82223,2.05001 -2.96112,4.66947 -2.96112,7.6306c0,6.15 5.12501,11.27501 11.27503,11.27501c1.59445,0 3.1889,-0.34163 4.55557,-1.02499c-0.56943,2.96115 -2.05001,5.69449 -4.32779,7.85837l-24.71397,23.5751l22.89174,17.76673c3.3028,2.61944 3.87224,7.51669 1.25279,10.81947c-1.48057,1.93613 -3.75836,2.96112 -6.03615,2.96112c-1.59445,0 -3.30278,-0.56946 -4.66945,-1.59447l-32.91402,-25.73898c-1.36667,-0.68334 -2.61944,-1.59445 -3.64446,-2.8472c-5.69447,-5.92227 -5.58056,-15.37509 0.45556,-21.06953zM267.54299,129.59131c4.21392,0 7.74447,-3.41666 7.74447,-7.63055c0,-4.21394 -3.53056,-7.74447 -7.74447,-7.74447c-4.21389,0 -7.63057,3.53053 -7.63057,7.74447c0,4.21387 3.41668,7.63055 7.63057,7.63055zM284.51251,129.59131c4.32779,0 7.74447,-3.41666 7.74447,-7.63055c0,-4.21394 -3.41668,-7.74447 -7.74447,-7.74447c-4.21392,0 -7.6306,3.53053 -7.6306,7.74447c0,4.21387 3.41668,7.63055 7.6306,7.63055z" fill="#ffb23b" fill-rule="nonzero" stroke="none" stroke-width="75" stroke-linecap="square" stroke-linejoin="round" stroke-miterlimit="10"/><path d="M489.34842,238.82891v-1.95749h-19.84166v1.95749zM450.99976,238.60845c-0.45556,-0.72889 -0.22778,-1.68556 0.47835,-2.14112c1.29833,-0.82 1.98166,-3.16611 1.98166,-5.05669c0,-0.86556 0.68334,-1.54889 1.54889,-1.54889c0.66057,0 1.25284,0.43279 1.45778,1.04778h6.7878c1.6628,0 3.00668,1.34391 3.00668,3.00668c0,6.21837 -2.80166,10.93337 -8.35946,12.16338c-0.11395,0.02152 -0.22778,0.04544 -0.31889,0.04544c-0.72889,0 -1.36662,-0.50111 -1.52613,-1.20721c-0.18222,-0.84279 0.34168,-1.6628 1.18445,-1.84502c1.09334,-0.25054 2.02724,-0.66055 2.80169,-1.23l-3.16613,-1.38944c-0.7733,-0.34168 -1.13889,-1.25279 -0.79721,-2.02724c0.34166,-0.7733 1.23,-1.13889 2.02722,-0.79721l3.98614,1.73112c0.36445,-0.72889 0.63771,-1.54889 0.79721,-2.43724h-7.74447c-0.50111,0.86556 -1.16166,1.61724 -2.00445,2.16391c-0.25054,0.15927 -0.54667,0.22766 -0.82,0.22766c-0.52388,0 -1.02499,-0.25057 -1.32112,-0.70613zM431.27413,239.13224c-0.22778,-1.59445 0.91111,-3.09791 2.50556,-3.32557c3.3028,-0.45556 6.44615,-2.16391 8.01781,-4.35058c0.95667,-1.29833 2.80169,-1.59445 4.1228,-0.63778c1.32112,0.95667 1.59445,2.7789 0.66055,4.10001c-1.20721,1.6628 -2.89278,3.09779 -4.82891,4.23668v5.46669c0,0.82 -0.68334,1.50334 -1.50334,1.50334c-0.84277,0 -1.5261,-0.68334 -1.5261,-1.50334v-4.03167c-1.32112,0.50111 -2.71058,0.86556 -4.1228,1.04778c-0.13667,0.02152 -0.27321,0.04544 -0.41,0.04544c-1.43499,0 -2.68767,-1.07057 -2.91557,-2.55112zM412.86962,242.54879h5.05669v-4.8517h-3.14334c-1.6628,0 -3.00668,-1.34388 -3.00668,-3.00668c0,-1.66277 1.34388,-3.00668 3.00668,-3.00668h9.36169c1.6628,0 3.00668,1.34391 3.00668,3.00668c0,1.6628 -1.34388,3.00668 -3.00668,3.00668h-3.14334v4.8517h5.05669c0.84279,0 1.54889,0.68334 1.54889,1.54889c0,0.84277 -0.7061,1.54889 -1.54889,1.54889h-13.18837c-0.84279,0 -1.54889,-0.70613 -1.54889,-1.54889c0,-0.86556 0.7061,-1.54889 1.54889,-1.54889zM400.09125,244.91781c-0.18222,-0.84279 0.34168,-1.6628 1.18445,-1.84502c2.34613,-0.52388 3.3028,-1.98166 3.3028,-5.07945v-6.58281c0,-0.86556 0.68334,-1.54889 1.54889,-1.54889c0.84277,0 1.54889,0.68334 1.54889,1.54889v6.58281c0,4.53278 -1.93613,7.26613 -5.76281,8.08613c-0.11395,0.02152 -0.20506,0.04544 -0.31889,0.04544c-0.7061,0 -1.34383,-0.50111 -1.50334,-1.20721zM395.62679,233.6882c0,-1.66277 1.34391,-3.02944 3.00668,-3.02944c1.6628,0 3.00668,1.36667 3.00668,3.02944v4.8517c0,1.66277 -1.34388,3.00668 -3.00668,3.00668c-1.66277,0 -3.00668,-1.34391 -3.00668,-3.00668zM376.72119,238.60852c-0.45556,-0.72889 -0.25057,-1.68556 0.47832,-2.14112c1.27556,-0.82 1.9589,-3.16611 1.9589,-5.05669c0,-0.86556 0.68334,-1.54889 1.54889,-1.54889c0.68334,0 1.25284,0.43279 1.45778,1.04778h6.7878c1.6628,0 3.02947,1.34391 3.02947,3.00668c0,6.21837 -2.82445,10.93337 -8.35949,12.16338c-0.114,0.02152 -0.22783,0.04544 -0.34166,0.04544c-0.70613,0 -1.34383,-0.50111 -1.50334,-1.20721c-0.18222,-0.84279 0.34166,-1.6628 1.16166,-1.84502c3.23446,-0.72889 5.03392,-2.93833 5.6717,-6.15002h-7.76726c-0.50111,0.86556 -1.16166,1.61724 -2.00445,2.16391c-0.25054,0.15927 -0.54667,0.22766 -0.82,0.22766c-0.50111,0 -1.00223,-0.25057 -1.29833,-0.70613zM357.45109,234.69047c0,-1.66277 1.36667,-3.00668 3.02944,-3.00668h9.33892c1.6628,0 3.00668,1.34391 3.00668,3.00668v9.88559c0,0.86556 -0.68334,1.54889 -1.5261,1.54889c-0.45556,0 -0.84279,-0.18222 -1.13889,-0.47832h-10.02226c-0.29612,0.2961 -0.68334,0.47832 -1.13889,0.47832c-0.84279,0 -1.54889,-0.68334 -1.54889,-1.54889zM369.75114,242.54887v-4.8517h-9.20226v4.8517zM343.35161,232.45826c0,-0.86556 0.68334,-1.54889 1.5261,-1.54889c0.86556,0 1.54889,0.68334 1.54889,1.54889v2.82445l4.89725,0.86556c1.64001,0.29612 2.73334,1.84502 2.43722,3.48502c-0.2961,1.64001 -1.84499,2.71055 -3.485,2.41445l-3.84947,-0.70613v3.23446c0,0.86556 -0.68334,1.54889 -1.54889,1.54889c-0.84277,0 -1.5261,-0.68334 -1.5261,-1.54889zM326.97432,232.07105h3.16611c1.66277,0 3.02947,1.34388 3.02947,3.00668c0,1.66277 -1.36667,3.00668 -3.02947,3.00668h-3.16611c-1.66277,0 -3.00668,-1.34391 -3.00668,-3.00668c0,-1.6628 1.34391,-3.00668 3.00668,-3.00668zM329.50267,244.91786c-0.18222,-0.84279 0.34168,-1.6628 1.16166,-1.84502c4.16836,-0.93388 5.94503,-4.32779 5.94503,-9.1567c0,-0.84277 0.68334,-1.54889 1.54889,-1.54889c0.84279,0 1.54889,0.70613 1.54889,1.54889c0,6.21837 -2.82445,10.93337 -8.35949,12.16338c-0.1139,0.02152 -0.2278,0.04544 -0.34168,0.04544c-0.70613,0 -1.34388,-0.50111 -1.50334,-1.20721zM304.46979,239.13231c-0.22778,-1.59445 0.91111,-3.09791 2.50556,-3.32557c3.30278,-0.45556 6.44612,-2.16391 8.01781,-4.35058c0.95667,-1.29833 2.80169,-1.59445 4.1228,-0.63778c1.32112,0.95667 1.59445,2.7789 0.66055,4.10001c-1.20724,1.6628 -2.89278,3.09779 -4.82891,4.23668v5.46669c0,0.82 -0.68334,1.50334 -1.50334,1.50334c-0.84279,0 -1.52613,-0.68334 -1.52613,-1.50334v-4.03167c-1.32112,0.50111 -2.71055,0.86556 -4.12278,1.04778c-0.13667,0.02152 -0.27333,0.04544 -0.41,0.04544c-1.43502,0 -2.68779,-1.07057 -2.91557,-2.55112zM289.27838,235.98172v3.82596h3.82599v-3.82596zM262.55853,241.49972c0.04556,-0.09111 2.55112,-3.80391 3.66722,-9.04282c0.36445,-1.59445 1.93611,-2.59668 3.53056,-2.255c1.59445,0.34166 2.61947,1.91334 2.25502,3.50779c-0.75166,3.50779 -2.00445,6.44612 -3.00668,8.40502c1.38946,-0.09087 3.02947,-0.18222 4.66947,-0.22766l-1.04778,-2.41445c-0.31889,-0.75166 0.02279,-1.66277 0.79724,-1.98166c0.77445,-0.34168 1.66277,0.02277 2.00445,0.77445l1.93613,4.48723v0.02391l0.54667,1.23c0.31889,0.77445 -0.02277,1.66277 -0.79721,1.98166c-0.20499,0.09135 -0.41,0.13679 -0.59222,0.13679c-0.59222,0 -1.16166,-0.34166 -1.41223,-0.91111l-0.13667,-0.31889c-2.93833,0.04556 -6.03615,0.27329 -7.94949,0.43279c-0.54667,0.52388 -1.29833,0.79721 -2.02722,0.79721c-0.56943,0 -1.16166,-0.15943 -1.68556,-0.52388c-1.34388,-0.9339 -1.68556,-2.75613 -0.75166,-4.10001zM258.69983,238.82896v-1.95749h-19.84166v1.95749zM218.02784,238.60848c-0.45556,-0.72889 -0.22778,-1.68556 0.47835,-2.14112c1.29833,-0.82 1.98166,-3.16611 1.98166,-5.05669c0,-0.86556 0.68334,-1.54889 1.52613,-1.54889c0.86556,0 1.54889,0.68334 1.54889,1.54889v0.27333h4.82891c0.15946,1.11613 1.09334,1.98169 2.255,1.98169c0.68334,0 1.29833,-0.29612 1.70833,-0.77445c0.36445,0.43277 0.91111,0.70622 1.52613,0.75166c0.1139,0.34168 0.18222,0.68334 0.18222,1.04778c0,1.61724 -1.27556,2.93828 -2.87001,3.00668c-0.75166,4.53281 -3.48502,7.35726 -8.13171,8.38225c-0.1139,0.02152 -0.22778,0.04544 -0.34166,0.04544c-0.70613,0 -1.34391,-0.50111 -1.50334,-1.20721c-0.18222,-0.84279 0.34168,-1.6628 1.18445,-1.84502c3.23446,-0.72889 5.03392,-2.3689 5.67168,-5.37558h-6.42336c-0.41,0.54667 -0.91111,1.02502 -1.48055,1.38946c-0.25054,0.15927 -0.54667,0.22766 -0.82,0.22766c-0.5239,0 -1.02499,-0.25057 -1.32112,-0.70613zM230.64678,232.93656c0.84279,0 1.54889,-0.68334 1.54889,-1.52613c0,-0.86556 -0.70613,-1.54889 -1.54889,-1.54889c-0.86556,0 -1.54889,0.68334 -1.54889,1.54889c0,0.84279 0.68334,1.52613 1.54889,1.52613zM234.06346,232.93656c0.84279,0 1.54889,-0.68334 1.54889,-1.52613c0,-0.86556 -0.7061,-1.54889 -1.54889,-1.54889c-0.86556,0 -1.54889,0.68334 -1.54889,1.54889c0,0.84279 0.68334,1.52613 1.54889,1.52613z" fill="#ffffff" fill-rule="nonzero" stroke="#ffffff" stroke-width="10" stroke-linecap="square" stroke-linejoin="round" stroke-miterlimit="10"/><path d="M489.34842,238.82898v-1.95749h-19.84166v1.95749zM450.99976,238.6085c-0.45556,-0.72889 -0.22778,-1.68556 0.47835,-2.14112c1.29833,-0.82 1.98166,-3.16611 1.98166,-5.05669c0,-0.86556 0.68334,-1.54889 1.54889,-1.54889c0.66057,0 1.25284,0.43279 1.45778,1.04778h6.7878c1.6628,0 3.00668,1.34391 3.00668,3.00668c0,6.21837 -2.80166,10.93337 -8.35946,12.16338c-0.11395,0.02152 -0.22778,0.04544 -0.31889,0.04544c-0.72889,0 -1.36662,-0.50111 -1.52613,-1.20721c-0.18222,-0.84279 0.34168,-1.6628 1.18445,-1.84502c1.09334,-0.25054 2.02724,-0.66055 2.80169,-1.23l-3.16613,-1.38944c-0.7733,-0.34168 -1.13889,-1.25279 -0.79721,-2.02724c0.34166,-0.7733 1.23,-1.13889 2.02722,-0.79721l3.98614,1.73112c0.36445,-0.72889 0.63771,-1.54889 0.79721,-2.43724h-7.74447c-0.50111,0.86556 -1.16166,1.61724 -2.00445,2.16391c-0.25054,0.15927 -0.54667,0.22766 -0.82,0.22766c-0.52388,0 -1.02499,-0.25057 -1.32112,-0.70613zM431.27413,239.13228c-0.22778,-1.59445 0.91111,-3.09791 2.50556,-3.32557c3.3028,-0.45556 6.44615,-2.16391 8.01781,-4.35058c0.95667,-1.29833 2.80169,-1.59445 4.1228,-0.63778c1.32112,0.95667 1.59445,2.7789 0.66055,4.10001c-1.20721,1.6628 -2.89278,3.09779 -4.82891,4.23668v5.46669c0,0.82 -0.68334,1.50334 -1.50334,1.50334c-0.84277,0 -1.5261,-0.68334 -1.5261,-1.50334v-4.03167c-1.32112,0.50111 -2.71058,0.86556 -4.1228,1.04778c-0.13667,0.02152 -0.27321,0.04544 -0.41,0.04544c-1.43499,0 -2.68767,-1.07057 -2.91557,-2.55112zM412.86962,242.54884h5.05669v-4.8517h-3.14334c-1.6628,0 -3.00668,-1.34388 -3.00668,-3.00668c0,-1.66277 1.34388,-3.00668 3.00668,-3.00668h9.36169c1.6628,0 3.00668,1.34391 3.00668,3.00668c0,1.6628 -1.34388,3.00668 -3.00668,3.00668h-3.14334v4.8517h5.05669c0.84279,0 1.54889,0.68334 1.54889,1.54889c0,0.84277 -0.7061,1.54889 -1.54889,1.54889h-13.18837c-0.84279,0 -1.54889,-0.70613 -1.54889,-1.54889c0,-0.86556 0.7061,-1.54889 1.54889,-1.54889zM400.09125,244.91786c-0.18222,-0.84279 0.34168,-1.6628 1.18445,-1.84502c2.34613,-0.52388 3.3028,-1.98166 3.3028,-5.07945v-6.58281c0,-0.86556 0.68334,-1.54889 1.54889,-1.54889c0.84277,0 1.54889,0.68334 1.54889,1.54889v6.58281c0,4.53278 -1.93613,7.26613 -5.76281,8.08613c-0.11395,0.02152 -0.20506,0.04544 -0.31889,0.04544c-0.7061,0 -1.34383,-0.50111 -1.50334,-1.20721zM395.62679,233.68824c0,-1.66277 1.34391,-3.02944 3.00668,-3.02944c1.6628,0 3.00668,1.36667 3.00668,3.02944v4.8517c0,1.66277 -1.34388,3.00668 -3.00668,3.00668c-1.66277,0 -3.00668,-1.34391 -3.00668,-3.00668zM376.72119,238.60857c-0.45556,-0.72889 -0.25057,-1.68556 0.47832,-2.14112c1.27556,-0.82 1.9589,-3.16611 1.9589,-5.05669c0,-0.86556 0.68334,-1.54889 1.54889,-1.54889c0.68334,0 1.25284,0.43279 1.45778,1.04778h6.7878c1.6628,0 3.02947,1.34391 3.02947,3.00668c0,6.21837 -2.82445,10.93337 -8.35949,12.16338c-0.114,0.02152 -0.22783,0.04544 -0.34166,0.04544c-0.70613,0 -1.34383,-0.50111 -1.50334,-1.20721c-0.18222,-0.84279 0.34166,-1.6628 1.16166,-1.84502c3.23446,-0.72889 5.03392,-2.93833 5.6717,-6.15002h-7.76726c-0.50111,0.86556 -1.16166,1.61724 -2.00445,2.16391c-0.25054,0.15927 -0.54667,0.22766 -0.82,0.22766c-0.50111,0 -1.00223,-0.25057 -1.29833,-0.70613zM357.45109,234.69054c0,-1.66277 1.36667,-3.00668 3.02944,-3.00668h9.33892c1.6628,0 3.00668,1.34391 3.00668,3.00668v9.88559c0,0.86556 -0.68334,1.54889 -1.5261,1.54889c-0.45556,0 -0.84279,-0.18222 -1.13889,-0.47832h-10.02226c-0.29612,0.2961 -0.68334,0.47832 -1.13889,0.47832c-0.84279,0 -1.54889,-0.68334 -1.54889,-1.54889zM369.75114,242.54891v-4.8517h-9.20226v4.8517zM343.35161,232.45831c0,-0.86556 0.68334,-1.54889 1.5261,-1.54889c0.86556,0 1.54889,0.68334 1.54889,1.54889v2.82445l4.89725,0.86556c1.64001,0.29612 2.73334,1.84502 2.43722,3.48502c-0.2961,1.64001 -1.84499,2.71055 -3.485,2.41445l-3.84947,-0.70613v3.23446c0,0.86556 -0.68334,1.54889 -1.54889,1.54889c-0.84277,0 -1.5261,-0.68334 -1.5261,-1.54889zM326.97434,232.0711h3.16611c1.6628,0 3.02947,1.34388 3.02947,3.00668c0,1.66277 -1.36667,3.00668 -3.02947,3.00668h-3.16611c-1.6628,0 -3.00668,-1.34391 -3.00668,-3.00668c0,-1.6628 1.34388,-3.00668 3.00668,-3.00668zM329.50267,244.91793c-0.18222,-0.84279 0.34168,-1.6628 1.16168,-1.84502c4.16834,-0.93388 5.94501,-4.32779 5.94501,-9.1567c0,-0.84277 0.68334,-1.54889 1.54889,-1.54889c0.84279,0 1.54889,0.70613 1.54889,1.54889c0,6.21837 -2.82445,10.93337 -8.35946,12.16338c-0.11378,0.02152 -0.22785,0.04544 -0.34168,0.04544c-0.7061,0 -1.34383,-0.50111 -1.50334,-1.20721zM304.46981,239.13236c-0.22778,-1.59445 0.91111,-3.09791 2.50556,-3.32557c3.30278,-0.45556 6.44612,-2.16391 8.01781,-4.35058c0.95667,-1.29833 2.80166,-1.59445 4.12278,-0.63778c1.32112,0.95667 1.59445,2.7789 0.66057,4.10001c-1.20724,1.6628 -2.8928,3.09779 -4.82893,4.23668v5.46669c0,0.82 -0.68331,1.50334 -1.50331,1.50334c-0.84279,0 -1.52613,-0.68334 -1.52613,-1.50334v-4.03167c-1.32112,0.50111 -2.71055,0.86556 -4.12278,1.04778c-0.13667,0.02152 -0.27321,0.04544 -0.41,0.04544c-1.43502,0 -2.68767,-1.07057 -2.91557,-2.55112zM289.27838,235.98176v3.82596h3.82599v-3.82596zM262.55867,241.49977c0.04556,-0.09111 2.55112,-3.80391 3.66722,-9.04282c0.36445,-1.59445 1.93611,-2.59668 3.53056,-2.255c1.59445,0.34166 2.61947,1.91334 2.25502,3.50779c-0.75166,3.50779 -2.00445,6.44612 -3.00668,8.40502c1.38946,-0.09087 3.02947,-0.18222 4.66947,-0.22766l-1.04778,-2.41445c-0.31889,-0.75166 0.02277,-1.66277 0.79721,-1.98166c0.77445,-0.34168 1.6628,0.02277 2.00445,0.77445l1.93613,4.48723v0.02391l0.54667,1.23c0.31889,0.77445 -0.02279,1.66277 -0.79724,1.98166c-0.20499,0.09135 -0.41,0.13679 -0.59222,0.13679c-0.59222,0 -1.16166,-0.34166 -1.41223,-0.91111l-0.13679,-0.31889c-2.93833,0.04556 -6.03612,0.27329 -7.94946,0.43279c-0.54667,0.52388 -1.29833,0.79721 -2.02722,0.79721c-0.56943,0 -1.16166,-0.15943 -1.68556,-0.52388c-1.34388,-0.9339 -1.68556,-2.75613 -0.75168,-4.10001zM258.69983,238.82901v-1.95749h-19.84166v1.95749zM218.02784,238.60852c-0.45556,-0.72889 -0.22778,-1.68556 0.47835,-2.14112c1.29833,-0.82 1.98166,-3.16611 1.98166,-5.05669c0,-0.86556 0.68334,-1.54889 1.52613,-1.54889c0.86556,0 1.54889,0.68334 1.54889,1.54889v0.27333h4.82891c0.15946,1.11613 1.09334,1.98169 2.255,1.98169c0.68334,0 1.29833,-0.29612 1.70833,-0.77445c0.36445,0.43277 0.91111,0.70622 1.52613,0.75166c0.1139,0.34168 0.18222,0.68334 0.18222,1.04778c0,1.61724 -1.27556,2.93828 -2.87001,3.00668c-0.75166,4.53281 -3.48502,7.35726 -8.13171,8.38225c-0.1139,0.02152 -0.22778,0.04544 -0.34166,0.04544c-0.70613,0 -1.34391,-0.50111 -1.50334,-1.20721c-0.18222,-0.84279 0.34168,-1.6628 1.18445,-1.84502c3.23446,-0.72889 5.03392,-2.3689 5.67168,-5.37558h-6.42336c-0.41,0.54667 -0.91111,1.02502 -1.48055,1.38946c-0.25054,0.15927 -0.54667,0.22766 -0.82,0.22766c-0.5239,0 -1.02499,-0.25057 -1.32112,-0.70613zM230.64678,232.93661c0.84279,0 1.54889,-0.68334 1.54889,-1.52613c0,-0.86556 -0.70613,-1.54889 -1.54889,-1.54889c-0.86556,0 -1.54889,0.68334 -1.54889,1.54889c0,0.84279 0.68334,1.52613 1.54889,1.52613zM234.06346,232.93661c0.84279,0 1.54889,-0.68334 1.54889,-1.52613c0,-0.86556 -0.7061,-1.54889 -1.54889,-1.54889c-0.86556,0 -1.54889,0.68334 -1.54889,1.54889c0,0.84279 0.68334,1.52613 1.54889,1.52613z" fill="#ffb23b" fill-rule="nonzero" stroke="none" stroke-width="15" stroke-linecap="square" stroke-linejoin="round" stroke-miterlimit="10"/></g></g></svg>