<svg version="1.1" xmlns="http://www.w3.org/2000/svg" xmlns:xlink="http://www.w3.org/1999/xlink" width="231.61859" height="264.66664" viewBox="0,0,231.61859,264.66664"><defs><linearGradient x1="236.52744" y1="173.50932" x2="220.92439" y2="194.13819" gradientUnits="userSpaceOnUse" id="color-1"><stop offset="0" stop-color="#759fed"/><stop offset="1" stop-color="#52edae"/></linearGradient><linearGradient x1="191.30693" y1="233.36892" x2="175.70391" y2="253.9978" gradientUnits="userSpaceOnUse" id="color-2"><stop offset="0" stop-color="#51edae"/><stop offset="1" stop-color="#f9f88a"/></linearGradient></defs><g transform="translate(-124.19071,-47.66669)"><g data-paper-data="{&quot;isPaintingLayer&quot;:true}" fill-rule="evenodd" stroke="none" stroke-dasharray="" stroke-dashoffset="0" style="mix-blend-mode: normal"><path d="M331.09128,48.27941l-8.10096,23.70171l20.03589,15.02657l-25.03822,-0.38214l-8.10468,23.69897l-7.37533,-23.93322l-25.04095,-0.37841l20.48136,-14.41665l-7.37806,-23.92955l20.03587,15.02657z" fill="#759fed" stroke-width="1" stroke-linecap="butt" stroke-linejoin="round" stroke-miterlimit="2"/><path d="M141.13815,277.03758l18.51492,-1.69149l1.69147,18.51493l-18.51492,1.69146z" data-paper-data="{&quot;index&quot;:null}" fill="#faf28a" stroke-width="1" stroke-linecap="butt" stroke-linejoin="round" stroke-miterlimit="2"/><path d="M294.69755,96.83945l3.65073,8.76341l-5.76522,7.54335l-9.41446,-1.22195l-3.65073,-8.76338l5.76522,-7.54339z" fill="#759fed" stroke-width="1" stroke-linecap="butt" stroke-linejoin="round" stroke-miterlimit="2"/><path d="M290.93469,117.40456c0.8883,4.11959 -0.0049,8.59276 -2.82629,12.15173c-5.00426,6.31249 -14.18986,7.37437 -20.50242,2.37016c-6.31248,-5.00426 -7.37439,-14.18989 -2.37014,-20.50242c2.71945,-3.4304 6.67362,-5.31108 10.73413,-5.50943c-2.42183,2.02089 -3.81043,5.18284 -3.4218,8.54481c0.61289,5.30175 5.41427,9.10998 10.71597,8.4971c3.47071,-0.40121 6.29983,-2.597 7.6705,-5.55192z" fill="#759fed" stroke-width="1" stroke-linecap="butt" stroke-linejoin="round" stroke-miterlimit="2"/><path d="M246.31504,181.63364l-20.62156,-15.55034l15.55034,-20.62158l20.62156,15.55036z" fill="#759fed" stroke-width="1" stroke-linecap="butt" stroke-linejoin="round" stroke-miterlimit="2"/><path d="M264.58026,135.96488l-2.94933,25.36125l-20.62314,-15.5515z" fill="#759fed" stroke-width="1" stroke-linecap="round" stroke-linejoin="miter" stroke-miterlimit="1.5"/><path d="M231.26154,201.90972l-20.62156,-15.55034l15.55034,-20.62158l20.62158,15.55033z" fill="url(#color-1)" stroke-width="1" stroke-linecap="butt" stroke-linejoin="round" stroke-miterlimit="2"/><path d="M180.96981,225.5974l20.62156,15.55036l-15.55033,20.62156l-20.62156,-15.55034z" data-paper-data="{&quot;index&quot;:null}" fill="url(#color-2)" stroke-width="1" stroke-linecap="butt" stroke-linejoin="round" stroke-miterlimit="2"/><path d="M162.70459,271.26616l2.94935,-25.36125l20.62312,15.5515z" data-paper-data="{&quot;index&quot;:null}" fill="#faf28a" stroke-width="1" stroke-linecap="round" stroke-linejoin="miter" stroke-miterlimit="1.5"/><path d="M196.02333,205.78847l20.62159,15.55033l-15.55033,20.62155l-20.62159,-15.55033z" data-paper-data="{&quot;index&quot;:null}" fill="#51edae" stroke-width="1" stroke-linecap="butt" stroke-linejoin="round" stroke-miterlimit="2"/><path d="M211.43486,185.69415l20.62158,15.55033l-15.55035,20.62159l-20.62156,-15.55035z" data-paper-data="{&quot;index&quot;:null}" fill="#51edae" stroke-width="1" stroke-linecap="butt" stroke-linejoin="round" stroke-miterlimit="2"/><path d="M348.59261,55.30736c0,3.98563 3.23101,7.21665 7.21669,7.21667c-3.98568,0.00003 -7.21669,3.23106 -7.21669,7.21669c0,-3.98563 -3.23101,-7.21666 -7.21668,-7.21669c3.98568,-0.00003 7.21668,-3.23104 7.21668,-7.21667z" fill="#759fed" stroke-width="0.17306" stroke-linecap="butt" stroke-linejoin="round" stroke-miterlimit="10"/><path d="M271.289,61.02995c0,3.98563 3.23101,7.21664 7.21669,7.21668c-3.98568,0.00002 -7.21669,3.23103 -7.21669,7.21668c0,-3.98565 -3.23101,-7.21666 -7.21668,-7.21668c3.98568,-0.00002 7.21668,-3.23103 7.21668,-7.21668z" fill="#759fed" stroke-width="0.17306" stroke-linecap="butt" stroke-linejoin="round" stroke-miterlimit="10"/><path d="M331.80587,97.93048c0,3.98565 3.23101,7.21665 7.21668,7.21669c-3.98568,0.00002 -7.21668,3.23103 -7.21668,7.21668c0,-3.98565 -3.23101,-7.21663 -7.21669,-7.21668c3.98568,-0.00002 7.21669,-3.23104 7.21669,-7.21669z" fill="#759fed" stroke-width="0.17306" stroke-linecap="butt" stroke-linejoin="round" stroke-miterlimit="10"/><path d="M169.40945,280.55809l3.55546,-3.32723l3.32723,3.55548l-3.55548,3.32726z" data-paper-data="{&quot;index&quot;:null}" fill="#faf28a" stroke-width="1" stroke-linecap="butt" stroke-linejoin="round" stroke-miterlimit="2"/><path d="M124.19071,283.14092l3.55548,-3.32723l3.32721,3.55548l-3.55546,3.32721z" data-paper-data="{&quot;index&quot;:null}" fill="#faf28a" stroke-width="1" stroke-linecap="butt" stroke-linejoin="round" stroke-miterlimit="2"/><path d="M145.59052,310.80994l1.5234,-4.62505l4.62506,1.52338l-1.5234,4.62506z" data-paper-data="{&quot;index&quot;:null}" fill="#faf28a" stroke-width="1" stroke-linecap="butt" stroke-linejoin="round" stroke-miterlimit="2"/></g></g></svg>