<svg version="1.1" xmlns="http://www.w3.org/2000/svg" xmlns:xlink="http://www.w3.org/1999/xlink" width="217.24268" height="88.66664" viewBox="0,0,217.24268,88.66664"><defs><linearGradient x1="170.39383" y1="177.94816" x2="165.46138" y2="184.46937" gradientUnits="userSpaceOnUse" id="color-1"><stop offset="0" stop-color="#759fed"/><stop offset="1" stop-color="#52edae"/></linearGradient><linearGradient x1="156.09868" y1="196.87102" x2="151.16624" y2="203.39224" gradientUnits="userSpaceOnUse" id="color-2"><stop offset="0" stop-color="#51edae"/><stop offset="1" stop-color="#f9f88a"/></linearGradient><linearGradient x1="170.39383" y1="177.94816" x2="165.46138" y2="184.46937" gradientUnits="userSpaceOnUse" id="color-3"><stop offset="0" stop-color="#759fed"/><stop offset="1" stop-color="#52edae"/></linearGradient><linearGradient x1="156.09868" y1="196.87102" x2="151.16624" y2="203.39224" gradientUnits="userSpaceOnUse" id="color-4"><stop offset="0" stop-color="#51edae"/><stop offset="1" stop-color="#f9f88a"/></linearGradient></defs><g transform="translate(-132.38185,-135.66668)"><g data-paper-data="{&quot;isPaintingLayer&quot;:true}" stroke-dasharray="" stroke-dashoffset="0" style="mix-blend-mode: normal"><g fill-rule="evenodd"><g stroke="#ffffff" stroke-width="5"><path d="M200.28743,138.36037l-2.56088,7.4926l6.33376,4.75021l-7.9151,-0.1208l-2.56206,7.49174l-2.3315,-7.56579l-7.91597,-0.11962l6.47458,-4.5574l-2.33236,-7.56463l6.33376,4.75021z" fill="#759fed" stroke-linecap="butt" stroke-linejoin="round" stroke-miterlimit="2"/><path d="M140.23929,210.6756l5.85295,-0.53472l0.53471,5.85296l-5.85295,0.53471z" data-paper-data="{&quot;index&quot;:null}" fill="#faf28a" stroke-linecap="butt" stroke-linejoin="round" stroke-miterlimit="2"/><path d="M188.78261,153.71121l1.15407,2.7703l-1.82251,2.38461l-2.97611,-0.38628l-1.15407,-2.77029l1.82251,-2.38462z" fill="#759fed" stroke-linecap="butt" stroke-linejoin="round" stroke-miterlimit="2"/><path d="M187.5931,160.21227c0.28081,1.30229 -0.00155,2.71635 -0.89345,3.84142c-1.58195,1.99551 -4.48571,2.33119 -6.48124,0.74926c-1.99551,-1.58195 -2.3312,-4.48572 -0.74925,-6.48124c0.85967,-1.08442 2.10967,-1.67894 3.39328,-1.74165c-0.76559,0.63885 -1.20456,1.6384 -1.0817,2.70119c0.19375,1.67599 1.71156,2.87985 3.38754,2.68611c1.09716,-0.12683 1.99151,-0.82097 2.4248,-1.75508z" fill="#759fed" stroke-linecap="butt" stroke-linejoin="round" stroke-miterlimit="2"/><path d="M173.48789,180.51642l-6.5189,-4.91579l4.91579,-6.51891l6.5189,4.91579z" fill="#759fed" stroke-linecap="butt" stroke-linejoin="round" stroke-miterlimit="2"/><path d="M179.26191,166.07958l-0.93234,8.01722l-6.5194,-4.91615z" fill="#759fed" stroke-linecap="round" stroke-linejoin="miter" stroke-miterlimit="1.5"/><path d="M168.72917,186.92612l-6.5189,-4.91579l4.91579,-6.51891l6.51891,4.91578z" fill="url(#color-1)" stroke-linecap="butt" stroke-linejoin="round" stroke-miterlimit="2"/><path d="M152.83091,194.41429l6.5189,4.91579l-4.91578,6.5189l-6.5189,-4.91579z" data-paper-data="{&quot;index&quot;:null}" fill="url(#color-2)" stroke-linecap="butt" stroke-linejoin="round" stroke-miterlimit="2"/><path d="M147.05689,208.85113l0.93235,-8.01722l6.5194,4.91615z" data-paper-data="{&quot;index&quot;:null}" fill="#faf28a" stroke-linecap="round" stroke-linejoin="miter" stroke-miterlimit="1.5"/><path d="M157.58964,188.15227l6.51891,4.91578l-4.91578,6.5189l-6.51891,-4.91578z" data-paper-data="{&quot;index&quot;:null}" fill="#51edae" stroke-linecap="butt" stroke-linejoin="round" stroke-miterlimit="2"/><path d="M162.46154,181.80004l6.51891,4.91578l-4.91579,6.51891l-6.5189,-4.91579z" data-paper-data="{&quot;index&quot;:null}" fill="#51edae" stroke-linecap="butt" stroke-linejoin="round" stroke-miterlimit="2"/><path d="M205.81997,140.58206c0,1.25994 1.02139,2.28133 2.28135,2.28134c-1.25996,0.00001 -2.28135,1.02141 -2.28135,2.28135c0,-1.25994 -1.02139,-2.28134 -2.28134,-2.28135c1.25996,-0.00001 2.28134,-1.0214 2.28134,-2.28134z" fill="#759fed" stroke-linecap="butt" stroke-linejoin="round" stroke-miterlimit="10"/><path d="M181.38268,142.39108c0,1.25994 1.02139,2.28133 2.28135,2.28134c-1.25996,0.00001 -2.28135,1.0214 -2.28135,2.28134c0,-1.25995 -1.02139,-2.28134 -2.28134,-2.28134c1.25996,-0.00001 2.28134,-1.0214 2.28134,-2.28134z" fill="#759fed" stroke-linecap="butt" stroke-linejoin="round" stroke-miterlimit="10"/><path d="M200.51333,154.05611c0,1.25995 1.02139,2.28133 2.28134,2.28135c-1.25996,0.00001 -2.28134,1.0214 -2.28134,2.28134c0,-1.25995 -1.02139,-2.28133 -2.28135,-2.28134c1.25996,-0.00001 2.28135,-1.0214 2.28135,-2.28135z" fill="#759fed" stroke-linecap="butt" stroke-linejoin="round" stroke-miterlimit="10"/><path d="M149.17643,211.7885l1.12395,-1.05181l1.05181,1.12396l-1.12396,1.05182z" data-paper-data="{&quot;index&quot;:null}" fill="#faf28a" stroke-linecap="butt" stroke-linejoin="round" stroke-miterlimit="2"/><path d="M134.88185,212.60499l1.12396,-1.05181l1.0518,1.12396l-1.12395,1.0518z" data-paper-data="{&quot;index&quot;:null}" fill="#faf28a" stroke-linecap="butt" stroke-linejoin="round" stroke-miterlimit="2"/><path d="M141.64677,221.35174l0.48158,-1.46207l1.46208,0.48157l-0.48158,1.46208z" data-paper-data="{&quot;index&quot;:null}" fill="#faf28a" stroke-linecap="butt" stroke-linejoin="round" stroke-miterlimit="2"/></g><g stroke="none"><path d="M200.28743,138.36037l-2.56088,7.4926l6.33376,4.75021l-7.9151,-0.1208l-2.56206,7.49174l-2.3315,-7.56579l-7.91597,-0.11962l6.47458,-4.5574l-2.33236,-7.56463l6.33376,4.75021z" fill="#759fed" stroke-width="1" stroke-linecap="butt" stroke-linejoin="round" stroke-miterlimit="2"/><path d="M140.23929,210.6756l5.85295,-0.53472l0.53471,5.85296l-5.85295,0.53471z" data-paper-data="{&quot;index&quot;:null}" fill="#faf28a" stroke-width="1" stroke-linecap="butt" stroke-linejoin="round" stroke-miterlimit="2"/><path d="M188.78261,153.71121l1.15407,2.7703l-1.82251,2.38461l-2.97611,-0.38628l-1.15407,-2.77029l1.82251,-2.38462z" fill="#759fed" stroke-width="1" stroke-linecap="butt" stroke-linejoin="round" stroke-miterlimit="2"/><path d="M187.5931,160.21227c0.28081,1.30229 -0.00155,2.71635 -0.89345,3.84142c-1.58195,1.99551 -4.48571,2.33119 -6.48124,0.74926c-1.99551,-1.58195 -2.3312,-4.48572 -0.74925,-6.48124c0.85967,-1.08442 2.10967,-1.67894 3.39328,-1.74165c-0.76559,0.63885 -1.20456,1.6384 -1.0817,2.70119c0.19375,1.67599 1.71156,2.87985 3.38754,2.68611c1.09716,-0.12683 1.99151,-0.82097 2.4248,-1.75508z" fill="#759fed" stroke-width="1" stroke-linecap="butt" stroke-linejoin="round" stroke-miterlimit="2"/><path d="M173.48789,180.51642l-6.5189,-4.91579l4.91579,-6.51891l6.5189,4.91579z" fill="#759fed" stroke-width="1" stroke-linecap="butt" stroke-linejoin="round" stroke-miterlimit="2"/><path d="M179.26191,166.07958l-0.93234,8.01722l-6.5194,-4.91615z" fill="#759fed" stroke-width="1" stroke-linecap="round" stroke-linejoin="miter" stroke-miterlimit="1.5"/><path d="M168.72917,186.92612l-6.5189,-4.91579l4.91579,-6.51891l6.51891,4.91578z" fill="url(#color-3)" stroke-width="1" stroke-linecap="butt" stroke-linejoin="round" stroke-miterlimit="2"/><path d="M152.83091,194.41429l6.5189,4.91579l-4.91578,6.5189l-6.5189,-4.91579z" data-paper-data="{&quot;index&quot;:null}" fill="url(#color-4)" stroke-width="1" stroke-linecap="butt" stroke-linejoin="round" stroke-miterlimit="2"/><path d="M147.05689,208.85113l0.93235,-8.01722l6.5194,4.91615z" data-paper-data="{&quot;index&quot;:null}" fill="#faf28a" stroke-width="1" stroke-linecap="round" stroke-linejoin="miter" stroke-miterlimit="1.5"/><path d="M157.58964,188.15227l6.51891,4.91578l-4.91578,6.5189l-6.51891,-4.91578z" data-paper-data="{&quot;index&quot;:null}" fill="#51edae" stroke-width="1" stroke-linecap="butt" stroke-linejoin="round" stroke-miterlimit="2"/><path d="M162.46154,181.80004l6.51891,4.91578l-4.91579,6.51891l-6.5189,-4.91579z" data-paper-data="{&quot;index&quot;:null}" fill="#51edae" stroke-width="1" stroke-linecap="butt" stroke-linejoin="round" stroke-miterlimit="2"/><path d="M205.81997,140.58206c0,1.25994 1.02139,2.28133 2.28135,2.28134c-1.25996,0.00001 -2.28135,1.02141 -2.28135,2.28135c0,-1.25994 -1.02139,-2.28134 -2.28134,-2.28135c1.25996,-0.00001 2.28134,-1.0214 2.28134,-2.28134z" fill="#759fed" stroke-width="0.17306" stroke-linecap="butt" stroke-linejoin="round" stroke-miterlimit="10"/><path d="M181.38268,142.39108c0,1.25994 1.02139,2.28133 2.28135,2.28134c-1.25996,0.00001 -2.28135,1.0214 -2.28135,2.28134c0,-1.25995 -1.02139,-2.28134 -2.28134,-2.28134c1.25996,-0.00001 2.28134,-1.0214 2.28134,-2.28134z" fill="#759fed" stroke-width="0.17306" stroke-linecap="butt" stroke-linejoin="round" stroke-miterlimit="10"/><path d="M200.51333,154.05611c0,1.25995 1.02139,2.28133 2.28134,2.28135c-1.25996,0.00001 -2.28134,1.0214 -2.28134,2.28134c0,-1.25995 -1.02139,-2.28133 -2.28135,-2.28134c1.25996,-0.00001 2.28135,-1.0214 2.28135,-2.28135z" fill="#759fed" stroke-width="0.17306" stroke-linecap="butt" stroke-linejoin="round" stroke-miterlimit="10"/><path d="M149.17643,211.7885l1.12395,-1.05181l1.05181,1.12396l-1.12396,1.05182z" data-paper-data="{&quot;index&quot;:null}" fill="#faf28a" stroke-width="1" stroke-linecap="butt" stroke-linejoin="round" stroke-miterlimit="2"/><path d="M134.88185,212.60499l1.12396,-1.05181l1.0518,1.12396l-1.12395,1.0518z" data-paper-data="{&quot;index&quot;:null}" fill="#faf28a" stroke-width="1" stroke-linecap="butt" stroke-linejoin="round" stroke-miterlimit="2"/><path d="M141.64677,221.35174l0.48158,-1.46207l1.46208,0.48157l-0.48158,1.46208z" data-paper-data="{&quot;index&quot;:null}" fill="#faf28a" stroke-width="1" stroke-linecap="butt" stroke-linejoin="round" stroke-miterlimit="2"/></g></g><g fill-rule="nonzero" stroke-linejoin="round" stroke-miterlimit="10"><g fill-opacity="0.3" fill="#000000" stroke="#000000" stroke-width="10" stroke-linecap="butt"><path d="M311.81053,174.87457c1.143,2.191 3.334,3.382 5.573,3.382l-7.473,8.357c-1.679,0 -3.322,-0.893 -4.179,-2.536z"/><path d="M317.38353,178.25657c1,0 2,-0.191 2.905,-0.715l-8.2,8.536c-0.678,0.393 -1.428,0.536 -2.178,0.536z"/><path d="M312.08853,186.07757c2.537,-1.322 4.894,-3.965 6.323,-6.787l10.306,-10.797c-1.905,3.762 -5.048,7.286 -8.429,9.048z"/><path d="M328.71753,168.49357l10.43,16.383l-12.914,6.702l-7.822,-12.288z"/><path d="M339.14753,184.87657c0.619,0.952 1.667,1.476 2.715,1.476l-13.593,6.333c-0.786,0 -1.572,-0.393 -2.036,-1.107z"/><path d="M341.86253,186.35257c0.619,0 1.19,-0.143 1.762,-0.524l-14.033,6.464c-0.429,0.286 -0.858,0.393 -1.322,0.393z"/><path d="M329.59153,192.29257c1.107,-0.714 1.464,-2.214 0.75,-3.322l14.283,-7.571c0.953,1.476 0.476,3.477 -1,4.429z"/><path d="M330.34153,188.97057l-8.716,-13.68l11.379,-12.131l11.62,18.24z"/><path d="M321.62553,175.29057c-0.321,0.107 -0.643,0.143 -1,0.143l11.045,-12.084c0.476,0 0.905,-0.047 1.334,-0.19z"/><path d="M320.62553,175.43357c-1.964,0 -3.536,-1.572 -3.536,-3.536l9.866,-13.263c0,2.62 2.096,4.715 4.715,4.715z"/><path d="M317.08953,171.89757c0,-0.786 0.214,-1.465 0.643,-2.072l10.08,-13.953c-0.571,0.81 -0.857,1.715 -0.857,2.762z"/><path d="M317.73253,169.82557c-0.714,-0.464 -1.607,-0.714 -2.536,-0.714l9.235,-14.191c1.238,0 2.429,0.333 3.381,0.952z"/><path d="M315.19653,169.11157c-2.572,0 -4.679,2.071 -4.715,4.679l7.664,-12.632c0.047,-3.476 2.857,-6.238 6.286,-6.238z"/><path d="M310.48153,173.79057c-0.107,1 -1.679,3.357 -2.75,3.929l6.746,-11.322c1.429,-0.762 3.525,-3.905 3.668,-5.239z"/><path d="M314.47753,166.39756c-3.095,1.619 -4.286,5.429 -2.667,8.477l-6.079,9.203c-1.215,-2.286 -0.322,-5.144 2,-6.358z"/><path d="M328.43253,158.63457c0,-1.809 1.476,-3.238 3.238,-3.238l-11.045,14.072c-1.321,0 -2.429,1.071 -2.429,2.429z"/><path d="M331.67053,155.39657c1.81,0 3.239,1.429 3.239,3.238l-11.855,13.263c0,-1.358 -1.071,-2.429 -2.429,-2.429z"/><path d="M323.05453,171.89757c0,1.321 -1.071,2.429 -2.429,2.429l11.045,-12.453c1.81,0 3.239,-1.477 3.239,-3.239z"/><path d="M320.62553,174.32657c-1.321,0 -2.429,-1.108 -2.429,-2.429l10.236,-13.263c0,1.762 1.476,3.239 3.238,3.239z"/><path d="M335.57553,158.63457c0,-1.809 1.477,-3.238 3.239,-3.238l-12.831,14.072c-1.321,0 -2.429,1.071 -2.429,2.429z"/><path d="M338.81453,155.39657c1.81,0 3.238,1.429 3.238,3.238l-13.64,13.263c0,-1.358 -1.072,-2.429 -2.429,-2.429z"/><path d="M342.05253,158.63457c0,1.762 -1.428,3.239 -3.238,3.239l-12.831,12.453c1.357,0 2.429,-1.108 2.429,-2.429z"/><path d="M325.98353,174.32657c-1.321,0 -2.429,-1.108 -2.429,-2.429l12.021,-13.263c0,1.762 1.477,3.239 3.239,3.239z"/><path d="M269.47233,178.35157c0,1.715 1.3335,3.143 3.048,3.239l3.7428,7.523c-1.2859,-0.071 -2.286,-1.143 -2.286,-2.429z"/><path d="M276.26313,189.11357v1.143l-3.7428,-7.142v-1.524z"/><path d="M272.52033,183.11457c0,1.809 1.4763,3.238 3.2385,3.238l2.9332,6.333c-1.3216,0 -2.4289,-1.072 -2.4289,-2.429z"/><path d="M275.75883,186.35257c1.8097,0 3.2385,-1.429 3.2385,-3.238l2.1235,7.142c0,1.357 -1.0715,2.429 -2.4288,2.429z"/><path d="M278.99733,183.11457v-10.907l2.1235,9.87v8.179z"/><path d="M278.99733,172.20757l2.7622,-3.762l1.433,10.81l-2.0717,2.822z"/><path d="M281.75953,168.44557c0.7144,-0.952 1.81,-1.524 3,-1.524l0.683,11.191c-0.893,0 -1.714,0.428 -2.25,1.143z"/><path d="M284.75953,166.92156h8.859l-1.532,11.191h-6.644z"/><path d="M293.61853,166.92156v16.193l-1.532,7.142v-12.144z"/><path d="M293.61853,183.11457c0,1.809 1.428,3.238 3.238,3.238l-2.341,6.333c-1.357,0 -2.429,-1.072 -2.429,-2.429z"/><path d="M296.85653,186.35257h3.382l-3.187,6.333h-2.536z"/><path d="M300.23853,186.35257c1.809,0 3.238,-1.429 3.238,-3.238l-3.996,7.142c0,1.357 -1.072,2.429 -2.429,2.429z"/><path d="M299.48053,190.25657c0,-1.321 -1.072,-2.429 -2.429,-2.429l3.187,-7.952c1.809,0 3.238,1.476 3.238,3.239z"/><path d="M297.05153,187.82757h-0.107l3.151,-7.952h0.143z"/><path d="M296.94453,187.82757v-14.43l3.151,-12.762v19.24z"/><path d="M296.94453,173.39757v-0.072l3.151,-12.786v0.096z"/><path d="M296.94453,173.32557v-0.071l3.151,-12.81v0.095z"/><path d="M296.94453,173.25457c-0.107,-2.572 -2.286,-4.572 -4.858,-4.572l1.532,-14.334c3.429,0 6.334,2.667 6.477,6.096z"/><path d="M292.08653,168.68257h-4.715l-0.04,-14.334h6.287z"/><path d="M287.37153,168.68257c-1.357,0 -2.607,0.607 -3.465,1.536l-1.194,-13.822c1.143,-1.238 2.809,-2.048 4.619,-2.048z"/><path d="M283.90653,170.21857c-0.142,0.107 -0.25,0.214 -0.357,0.393l-1.3137,-13.691c0.1428,-0.238 0.2857,-0.381 0.4767,-0.524z"/><path d="M283.54953,170.61157l-2.4287,3.286l-2.1235,-12.596l3.2385,-4.381z"/><path d="M278.99733,161.30157v-5.715l2.1235,14.025v4.286z"/><path d="M281.12083,169.61157c0,-1.358 -1.0715,-2.429 -2.4288,-2.429l-2.9332,-14.834c1.8097,0 3.2385,1.429 3.2385,3.238z"/><path d="M278.69203,167.18257c-1.3216,0 -2.4289,1.071 -2.4289,2.429l-3.7428,-14.025c0,-1.809 1.4763,-3.238 3.2385,-3.238z"/><path d="M276.26313,169.61157v1.714l-3.7428,-13.453v-2.286z"/><path d="M276.26313,171.32557c-1.2859,0.036 -2.286,1.108 -2.286,2.393l-4.5048,-12.655c0,-1.714 1.3335,-3.143 3.048,-3.191z"/><path d="M269.47233,161.06356c0,1.715 1.3335,3.144 3.048,3.239l3.7428,11.845c-1.2859,-0.071 -2.286,-1.143 -2.286,-2.429z"/><path d="M276.26313,176.14757v8.144l-3.7428,-9.131v-10.858z"/><path d="M276.26313,184.29157c-1.2859,0.036 -2.286,1.107 -2.286,2.393l-4.5048,-8.333c0,-1.714 1.3335,-3.143 3.048,-3.191z"/><path d="M245.58063,183.22057c0.3215,0.392 0.7144,0.678 1.143,0.892l-13.5892,-9.19c-0.5715,-0.286 -1.0954,-0.667 -1.524,-1.191z"/><path d="M246.72363,184.11257l10.3228,8.073l-10.1484,-6.5l-13.7636,-10.763z"/><path d="M246.89803,185.68557c0.5715,0.429 1.2859,0.667 1.9526,0.667l9.6602,6.333c-0.5,0 -1.0358,-0.179 -1.4644,-0.5z"/><path d="M248.85063,186.35257c0.9525,0 1.905,-0.429 2.5241,-1.238l9.0292,6.642c-0.4643,0.608 -1.1787,0.929 -1.8931,0.929z"/><path d="M251.37473,185.11457c1.0954,-1.381 0.8573,-3.429 -0.5238,-4.525l9.1601,7.774c1.0359,0.822 1.2145,2.357 0.3929,3.393z"/><path d="M260.01103,188.36357l-7.1794,-5.572l-11.5534,-9.631l9.5727,7.429z"/><path d="M241.27823,173.16057l10.3347,-9.858l8.9696,12.095l-7.7509,7.394z"/><path d="M251.61293,163.30256c0.9525,-0.905 1.5716,-2.048 1.8097,-3.287l8.5172,12.918c-0.1786,0.928 -0.6429,1.785 -1.3573,2.464z"/><path d="M261.93983,172.93357c-0.4286,0.214 -0.9287,0.321 -1.4287,0.321l-8.9935,-12.81c0.6668,0 1.3335,-0.143 1.905,-0.429z"/><path d="M260.51113,173.25457c-1.9288,0 -3.5362,-1.607 -3.5362,-3.536l-10.1722,-13.989c0,2.572 2.1432,4.715 4.7149,4.715z"/><path d="M246.80273,155.72957c0,-1.238 0.4763,-2.333 1.2383,-3.191l9.8626,14.787c-0.5715,0.643 -0.9287,1.464 -0.9287,2.393z"/><path d="M257.90363,167.32556c-1.3573,-0.143 -2.7503,0.25 -3.7862,1.286l-11.1247,-14.358c1.3812,-1.381 3.2385,-1.905 5.0483,-1.715z"/><path d="M254.11743,168.61157l-8.3939,8.001l-13.9226,-11.691l11.1918,-10.668z"/><path d="M245.72353,176.61257c-1.8931,1.786 -1.9288,4.75 -0.1429,6.608l-13.9702,-9.489c-2.3813,-2.476 -2.3337,-6.429 0.1905,-8.81z"/><path d="M248.32673,155.72957c0,-1.762 1.4288,-3.238 3.1909,-3.238l8.9935,14.798c-1.3216,0 -2.3932,1.107 -2.3932,2.429z"/><path d="M251.51763,152.49157c1.7621,0 3.2385,1.476 3.2385,3.238l8.1839,13.989c0,-1.322 -1.1073,-2.429 -2.4289,-2.429z"/><path d="M262.94003,169.71857c0,1.321 -1.1073,2.393 -2.4289,2.393l-8.9935,-13.191c1.7621,0 3.2385,-1.429 3.2385,-3.191z"/><path d="M260.51113,172.11157c-1.3216,0 -2.3932,-1.072 -2.3932,-2.393l-9.7912,-13.989c0,1.762 1.4288,3.191 3.1909,3.191z"/><path d="M255.42293,155.72957c0,-1.762 1.4287,-3.238 3.1908,-3.238l7.2195,14.798c-1.3216,0 -2.3932,1.107 -2.3932,2.429z"/><path d="M258.61373,152.49157c1.8098,0 3.2385,1.476 3.2385,3.238l6.4099,13.989c0,-1.322 -1.0716,-2.429 -2.4289,-2.429z"/><path d="M268.26213,169.71857c0,1.321 -1.0716,2.393 -2.4289,2.393l-7.2195,-13.191c1.8098,0 3.2385,-1.429 3.2385,-3.191z"/><path d="M265.83323,172.11157c-1.3216,0 -2.3932,-1.072 -2.3932,-2.393l-8.0171,-13.989c0,1.762 1.4287,3.191 3.1908,3.191z"/></g><path d="M314.47795,166.39778c1.42875,-0.762 3.52425,-3.90525 3.66712,-5.23875c0.04763,-3.47663 2.8575,-6.23888 6.2865,-6.23888c1.23825,0 2.42888,0.33338 3.38138,0.9525c-0.5715,0.80963 -0.85725,1.7145 -0.85725,2.76225c0,2.61938 2.0955,4.71488 4.71487,4.71488c0.47625,0 0.90488,-0.04763 1.3335,-0.1905l11.6205,18.24037c0.9525,1.47638 0.47625,3.47663 -1.00012,4.42913c-0.5715,0.381 -1.143,0.52387 -1.76213,0.52387c-1.04775,0 -2.0955,-0.52388 -2.71462,-1.47637l-10.42988,-16.38301c-1.905,3.76237 -5.04825,7.28662 -8.42962,9.04876c-0.90488,0.52387 -1.905,0.71437 -2.90513,0.71437c-2.23837,0 -4.42912,-1.19062 -5.57212,-3.38137c-1.61925,-3.048 -0.42863,-6.858 2.667,-8.47725zM331.67057,161.87338c1.80975,0 3.2385,-1.47636 3.2385,-3.23849c0,-1.80975 -1.42875,-3.2385 -3.2385,-3.2385c-1.76212,0 -3.2385,1.42875 -3.2385,3.2385c0,1.76212 1.47638,3.23849 3.2385,3.23849zM338.81432,161.87338c1.80975,0 3.2385,-1.47636 3.2385,-3.23849c0,-1.80975 -1.42875,-3.2385 -3.2385,-3.2385c-1.76212,0 -3.2385,1.42875 -3.2385,3.2385c0,1.76212 1.47638,3.23849 3.2385,3.23849zM269.4723,178.35175c0,-1.7145 1.3335,-3.14327 3.048,-3.19087v-10.8585c-1.7145,-0.09525 -3.048,-1.524 -3.048,-3.2385c0,-1.7145 1.3335,-3.14328 3.048,-3.19088v-2.286c0,-1.80975 1.47637,-3.2385 3.2385,-3.2385c1.80975,0 3.2385,1.42875 3.2385,3.2385v5.715l3.2385,-4.3815c0.14288,-0.23812 0.28575,-0.381 0.47625,-0.52387c1.143,-1.23825 2.80987,-2.04788 4.61962,-2.04788h6.2865c3.429,0 6.33413,2.667 6.477,6.096v0.0952v0.0952v19.2405h0.14288c1.80975,0 3.2385,1.47637 3.2385,3.23849c0,1.80975 -1.42875,3.2385 -3.2385,3.2385h-3.38138c-1.80975,0 -3.2385,-1.42875 -3.2385,-3.2385v-16.1925h-8.85825c-1.19062,0 -2.286,0.57151 -3.00037,1.524l-2.76225,3.76239v10.90611c0,1.80975 -1.42875,3.2385 -3.2385,3.2385c-1.76212,0 -3.2385,-1.42875 -3.2385,-3.2385v-1.524c-1.7145,-0.09525 -3.048,-1.524 -3.048,-3.23849zM231.80089,164.9214l11.19188,-10.66801c1.38112,-1.38111 3.2385,-1.90499 5.04825,-1.71449c-0.762,0.85725 -1.23825,1.95263 -1.23825,3.19088c0,2.57174 2.14312,4.71486 4.71487,4.71486c0.66675,0 1.3335,-0.14286 1.905,-0.42862c-0.23812,1.23826 -0.85725,2.38126 -1.80975,3.28613l-10.33463,9.85838l9.57263,7.4295c1.38112,1.09537 1.61925,3.14325 0.52388,4.52437c-0.61912,0.80963 -1.57163,1.23825 -2.52413,1.23825c-0.66675,0 -1.38112,-0.23813 -1.95262,-0.66676l-13.76362,-10.76325c-0.5715,-0.28575 -1.09537,-0.66675 -1.524,-1.19061c-2.38125,-2.47651 -2.33363,-6.42939 0.1905,-8.81063zM251.51764,158.92064c1.76212,0 3.2385,-1.42874 3.2385,-3.19086c0,-1.76214 -1.47638,-3.2385 -3.2385,-3.2385c-1.76212,0 -3.19087,1.47636 -3.19087,3.2385c0,1.76211 1.42875,3.19086 3.19087,3.19086zM258.61376,158.92064c1.80975,0 3.2385,-1.42874 3.2385,-3.19086c0,-1.76214 -1.42875,-3.2385 -3.2385,-3.2385c-1.76212,0 -3.19087,1.47636 -3.19087,3.2385c0,1.76211 1.42875,3.19086 3.19087,3.19086z" fill="#ffffff" stroke="#ffffff" stroke-width="5" stroke-linecap="square"/><path d="M314.47795,166.39778c1.42875,-0.762 3.52425,-3.90525 3.66712,-5.23875c0.04763,-3.47663 2.8575,-6.23888 6.2865,-6.23888c1.23825,0 2.42888,0.33338 3.38138,0.9525c-0.5715,0.80963 -0.85725,1.7145 -0.85725,2.76225c0,2.61938 2.0955,4.71488 4.71487,4.71488c0.47625,0 0.90488,-0.04763 1.3335,-0.1905l11.6205,18.24037c0.9525,1.47638 0.47625,3.47663 -1.00012,4.42913c-0.5715,0.381 -1.143,0.52387 -1.76213,0.52387c-1.04776,0 -2.0955,-0.52388 -2.71462,-1.47637l-10.42988,-16.38301c-1.905,3.76237 -5.04825,7.28662 -8.42962,9.04876c-0.90488,0.52387 -1.905,0.71437 -2.90513,0.71437c-2.23838,0 -4.42912,-1.19062 -5.57213,-3.38137c-1.61924,-3.048 -0.42862,-6.858 2.66701,-8.47725zM331.67056,161.87338c1.80975,0 3.2385,-1.47636 3.2385,-3.23849c0,-1.80975 -1.42875,-3.2385 -3.2385,-3.2385c-1.76211,0 -3.23849,1.42875 -3.23849,3.2385c0,1.76212 1.47637,3.23849 3.23849,3.23849zM338.81432,161.87338c1.80974,0 3.23849,-1.47636 3.23849,-3.23849c0,-1.80975 -1.42874,-3.2385 -3.23849,-3.2385c-1.76212,0 -3.2385,1.42875 -3.2385,3.2385c0,1.76212 1.47637,3.23849 3.2385,3.23849zM269.47229,178.35175c0,-1.7145 1.3335,-3.14327 3.048,-3.19087v-10.8585c-1.7145,-0.09525 -3.048,-1.524 -3.048,-3.2385c0,-1.7145 1.3335,-3.14328 3.048,-3.19088v-2.286c0,-1.80975 1.47638,-3.2385 3.2385,-3.2385c1.80975,0 3.2385,1.42875 3.2385,3.2385v5.715l3.2385,-4.3815c0.14288,-0.23812 0.28574,-0.381 0.47624,-0.52387c1.143,-1.23825 2.80987,-2.04788 4.61962,-2.04788h6.2865c3.429,0 6.33413,2.667 6.477,6.096v0.0952v0.0952v19.2405h0.14288c1.80975,0 3.2385,1.47637 3.2385,3.23849c0,1.80974 -1.42875,3.2385 -3.2385,3.2385h-3.38137c-1.80976,0 -3.2385,-1.42875 -3.2385,-3.2385v-16.1925h-8.85825c-1.19063,0 -2.286,0.57151 -3.00038,1.524l-2.76225,3.76239v10.90611c0,1.80975 -1.42875,3.2385 -3.2385,3.2385c-1.76212,0 -3.2385,-1.42875 -3.2385,-3.2385v-1.524c-1.7145,-0.09525 -3.048,-1.524 -3.048,-3.23849zM231.80088,164.9214l11.19188,-10.66801c1.38112,-1.38111 3.2385,-1.90499 5.04825,-1.71449c-0.762,0.85725 -1.23825,1.95263 -1.23825,3.19088c0,2.57174 2.14312,4.71486 4.71487,4.71486c0.66675,0 1.3335,-0.14286 1.905,-0.42862c-0.23812,1.23826 -0.85725,2.38126 -1.80975,3.28613l-10.33462,9.85838l9.57262,7.4295c1.38113,1.09537 1.61925,3.14325 0.52388,4.52437c-0.61913,0.80963 -1.57163,1.23825 -2.52413,1.23825c-0.66675,0 -1.38112,-0.23813 -1.95262,-0.66676l-13.76363,-10.76325c-0.5715,-0.28575 -1.09537,-0.66675 -1.524,-1.19061c-2.38125,-2.47651 -2.33362,-6.42939 0.1905,-8.81063zM251.51763,158.92064c1.76213,0 3.2385,-1.42874 3.2385,-3.19086c0,-1.76214 -1.47637,-3.2385 -3.2385,-3.2385c-1.76212,0 -3.19087,1.47636 -3.19087,3.2385c0,1.76211 1.42875,3.19086 3.19087,3.19086zM258.61376,158.92064c1.80975,0 3.2385,-1.42874 3.2385,-3.19086c0,-1.76214 -1.42875,-3.2385 -3.2385,-3.2385c-1.76213,0 -3.19088,1.47636 -3.19088,3.2385c0,1.76211 1.42875,3.19086 3.19088,3.19086z" fill="#ffb23b" stroke="none" stroke-width="75" stroke-linecap="square"/><path d="M344.26983,204.60044v-0.81856h-8.29717v0.81856zM328.2336,204.50825c-0.1905,-0.3048 -0.09525,-0.70485 0.20003,-0.89535c0.54292,-0.3429 0.82867,-1.32397 0.82867,-2.11455c0,-0.36195 0.28575,-0.6477 0.6477,-0.6477c0.27623,0 0.5239,0.18098 0.6096,0.43815h2.83845c0.69533,0 1.2573,0.56198 1.2573,1.2573c0,2.60033 -1.17157,4.572 -3.49567,5.08635c-0.04765,0.009 -0.09525,0.019 -0.13335,0.019c-0.3048,0 -0.57148,-0.20955 -0.63818,-0.50482c-0.0762,-0.35243 0.14288,-0.69533 0.4953,-0.77153c0.4572,-0.10477 0.84773,-0.27622 1.17158,-0.51435l-1.32398,-0.58102c-0.32337,-0.14288 -0.47625,-0.52388 -0.33337,-0.84773c0.14287,-0.32337 0.51435,-0.47625 0.84772,-0.33337l1.66688,0.7239c0.1524,-0.3048 0.26667,-0.6477 0.33337,-1.01918h-3.2385c-0.20955,0.36195 -0.48577,0.67628 -0.8382,0.90488c-0.10477,0.0666 -0.2286,0.0952 -0.3429,0.0952c-0.21907,0 -0.42862,-0.10478 -0.55245,-0.29528zM319.98495,204.72728c-0.09525,-0.66675 0.381,-1.29545 1.04775,-1.39065c1.38113,-0.1905 2.69558,-0.90488 3.3528,-1.81928c0.40005,-0.54292 1.17158,-0.66675 1.72403,-0.2667c0.55245,0.40005 0.66675,1.16205 0.27622,1.7145c-0.50482,0.69533 -1.20967,1.2954 -2.0193,1.77165v2.286c0,0.3429 -0.28575,0.62865 -0.62865,0.62865c-0.35242,0 -0.63817,-0.28575 -0.63817,-0.62865v-1.68592c-0.55245,0.20955 -1.13348,0.36195 -1.72403,0.43815c-0.05715,0.009 -0.11425,0.019 -0.17145,0.019c-0.60007,0 -1.1239,-0.44768 -1.2192,-1.0668zM312.28875,206.15598h2.11455v-2.02883h-1.31445c-0.69533,0 -1.2573,-0.56197 -1.2573,-1.2573c0,-0.69532 0.56197,-1.2573 1.2573,-1.2573h3.91477c0.69533,0 1.2573,0.56198 1.2573,1.2573c0,0.69533 -0.56197,1.2573 -1.2573,1.2573h-1.31445v2.02883h2.11455c0.35243,0 0.6477,0.28575 0.6477,0.6477c0,0.35242 -0.29527,0.6477 -0.6477,0.6477h-5.51497c-0.35243,0 -0.6477,-0.29528 -0.6477,-0.6477c0,-0.36195 0.29527,-0.6477 0.6477,-0.6477zM306.94523,207.14663c-0.0762,-0.35243 0.14288,-0.69533 0.4953,-0.77153c0.98108,-0.21907 1.38113,-0.82867 1.38113,-2.12407v-2.75273c0,-0.36195 0.28575,-0.6477 0.6477,-0.6477c0.35242,0 0.6477,0.28575 0.6477,0.6477v2.75273c0,1.89547 -0.80963,3.03847 -2.40983,3.38137c-0.04765,0.009 -0.08575,0.019 -0.13335,0.019c-0.29527,0 -0.56195,-0.20955 -0.62865,-0.50482zM305.07833,202.45075c0,-0.69532 0.56198,-1.26682 1.2573,-1.26682c0.69533,0 1.2573,0.5715 1.2573,1.26682v2.02883c0,0.69532 -0.56197,1.2573 -1.2573,1.2573c-0.69532,0 -1.2573,-0.56198 -1.2573,-1.2573zM297.17259,204.50828c-0.1905,-0.3048 -0.10478,-0.70485 0.20002,-0.89535c0.5334,-0.3429 0.81915,-1.32397 0.81915,-2.11455c0,-0.36195 0.28575,-0.6477 0.6477,-0.6477c0.28575,0 0.5239,0.18098 0.6096,0.43815h2.83845c0.69533,0 1.26683,0.56198 1.26683,1.2573c0,2.60033 -1.1811,4.572 -3.49568,5.08635c-0.04767,0.009 -0.09527,0.019 -0.14287,0.019c-0.29528,0 -0.56195,-0.20955 -0.62865,-0.50482c-0.0762,-0.35243 0.14287,-0.69533 0.48577,-0.77153c1.35255,-0.3048 2.10503,-1.22872 2.37173,-2.57175h-3.24803c-0.20955,0.36195 -0.48577,0.67628 -0.8382,0.90488c-0.10477,0.0666 -0.2286,0.0952 -0.3429,0.0952c-0.20955,0 -0.4191,-0.10478 -0.54292,-0.29528zM289.11443,202.86987c0,-0.69532 0.5715,-1.2573 1.26682,-1.2573h3.90525c0.69533,0 1.2573,0.56198 1.2573,1.2573v4.13385c0,0.36195 -0.28575,0.6477 -0.63817,0.6477c-0.1905,0 -0.35243,-0.0762 -0.47625,-0.20002h-4.191c-0.12383,0.12382 -0.28575,0.20002 -0.47625,0.20002c-0.35243,0 -0.6477,-0.28575 -0.6477,-0.6477zM294.25793,206.15601v-2.02883h-3.8481v2.02883zM283.21846,201.93643c0,-0.36195 0.28575,-0.6477 0.63817,-0.6477c0.36195,0 0.6477,0.28575 0.6477,0.6477v1.1811l2.04788,0.36195c0.6858,0.12383 1.143,0.77153 1.01917,1.45733c-0.12382,0.6858 -0.77152,1.13347 -1.45732,1.00965l-1.60973,-0.29528v1.35255c0,0.36195 -0.28575,0.6477 -0.6477,0.6477c-0.35242,0 -0.63817,-0.28575 -0.63817,-0.6477zM276.36998,201.77451h1.32397c0.69532,0 1.26683,0.56197 1.26683,1.2573c0,0.69532 -0.5715,1.2573 -1.26683,1.2573h-1.32397c-0.69532,0 -1.2573,-0.56198 -1.2573,-1.2573c0,-0.69533 0.56198,-1.2573 1.2573,-1.2573zM277.42726,207.14665c-0.0762,-0.35243 0.14288,-0.69533 0.48577,-0.77153c1.74308,-0.39052 2.48603,-1.80975 2.48603,-3.82905c0,-0.35242 0.28575,-0.6477 0.6477,-0.6477c0.35243,0 0.6477,0.29528 0.6477,0.6477c0,2.60033 -1.1811,4.572 -3.49568,5.08635c-0.04763,0.009 -0.09526,0.019 -0.14288,0.019c-0.29528,0 -0.56197,-0.20955 -0.62865,-0.50482zM266.95928,204.72731c-0.09525,-0.66675 0.381,-1.29545 1.04775,-1.39065c1.38112,-0.1905 2.69557,-0.90488 3.3528,-1.81928c0.40005,-0.54292 1.17158,-0.66675 1.72403,-0.2667c0.55245,0.40005 0.66675,1.16205 0.27622,1.7145c-0.50483,0.69533 -1.20967,1.2954 -2.0193,1.77165v2.286c0,0.3429 -0.28575,0.62865 -0.62865,0.62865c-0.35243,0 -0.63818,-0.28575 -0.63818,-0.62865v-1.68592c-0.55245,0.20955 -1.13347,0.36195 -1.72402,0.43815c-0.05715,0.009 -0.1143,0.019 -0.17145,0.019c-0.60008,0 -1.12395,-0.44768 -1.2192,-1.0668zM260.6067,203.40983v1.5999h1.59991v-1.5999zM249.43328,205.71729c0.01905,-0.0381 1.0668,-1.59068 1.53352,-3.78143c0.1524,-0.66675 0.80962,-1.08585 1.47637,-0.94297c0.66675,0.14287 1.09538,0.8001 0.94298,1.46685c-0.31432,1.46685 -0.8382,2.69557 -1.2573,3.51472c0.58103,-0.038 1.26683,-0.0762 1.95263,-0.0952l-0.43815,-1.00965c-0.13335,-0.31432 0.00953,-0.69532 0.33338,-0.82867c0.32385,-0.14288 0.69532,0.00952 0.8382,0.32385l0.80963,1.87642v0.01l0.2286,0.51435c0.13335,0.32385 -0.00952,0.69532 -0.33337,0.82867c-0.08572,0.0382 -0.17145,0.0572 -0.24765,0.0572c-0.24765,0 -0.48577,-0.14287 -0.59055,-0.381l-0.05715,-0.13335c-1.22872,0.01905 -2.52413,0.11428 -3.32423,0.18098c-0.2286,0.21907 -0.54292,0.33337 -0.84772,0.33337c-0.23812,0 -0.48577,-0.06667 -0.70485,-0.21907c-0.56197,-0.39053 -0.70485,-1.15253 -0.31432,-1.7145zM247.81969,204.60046v-0.81856h-8.29717v0.81856zM230.81192,204.50826c-0.1905,-0.3048 -0.09525,-0.70485 0.20003,-0.89535c0.54292,-0.3429 0.82867,-1.32397 0.82867,-2.11455c0,-0.36195 0.28575,-0.6477 0.63818,-0.6477c0.36195,0 0.6477,0.28575 0.6477,0.6477v0.1143h2.0193c0.06668,0.46673 0.4572,0.82868 0.94297,0.82868c0.28575,0 0.54292,-0.12383 0.71437,-0.32385c0.1524,0.18097 0.381,0.29532 0.63818,0.31432c0.04763,0.14288 0.0762,0.28575 0.0762,0.43815c0,0.67628 -0.5334,1.2287 -1.20015,1.2573c-0.31432,1.89548 -1.45733,3.07658 -3.40043,3.5052c-0.04763,0.009 -0.09525,0.019 -0.14287,0.019c-0.29528,0 -0.56198,-0.20955 -0.62865,-0.50482c-0.0762,-0.35243 0.14288,-0.69533 0.4953,-0.77153c1.35255,-0.3048 2.10503,-0.9906 2.37172,-2.2479h-2.68605c-0.17145,0.2286 -0.381,0.42863 -0.61912,0.58103c-0.10477,0.0666 -0.2286,0.0952 -0.3429,0.0952c-0.21908,0 -0.42862,-0.10478 -0.55245,-0.29528zM236.08877,202.13644c0.35243,0 0.6477,-0.28575 0.6477,-0.63818c0,-0.36195 -0.29528,-0.6477 -0.6477,-0.6477c-0.36195,0 -0.6477,0.28575 -0.6477,0.6477c0,0.35243 0.28575,0.63818 0.6477,0.63818zM237.51752,202.13644c0.35243,0 0.6477,-0.28575 0.6477,-0.63818c0,-0.36195 -0.29527,-0.6477 -0.6477,-0.6477c-0.36195,0 -0.6477,0.28575 -0.6477,0.6477c0,0.35243 0.28575,0.63818 0.6477,0.63818z" fill="#ffffff" stroke="#ffffff" stroke-width="5" stroke-linecap="square"/><path d="M344.26983,204.60047v-0.81856h-8.29717v0.81856zM328.2336,204.50827c-0.1905,-0.3048 -0.09525,-0.70485 0.20003,-0.89535c0.54292,-0.3429 0.82867,-1.32397 0.82867,-2.11455c0,-0.36195 0.28575,-0.6477 0.6477,-0.6477c0.27623,0 0.5239,0.18098 0.6096,0.43815h2.83845c0.69533,0 1.2573,0.56198 1.2573,1.2573c0,2.60033 -1.17157,4.572 -3.49567,5.08635c-0.04765,0.009 -0.09525,0.019 -0.13335,0.019c-0.3048,0 -0.57148,-0.20955 -0.63818,-0.50482c-0.0762,-0.35243 0.14288,-0.69533 0.4953,-0.77153c0.4572,-0.10477 0.84773,-0.27622 1.17158,-0.51435l-1.32398,-0.58102c-0.32337,-0.14288 -0.47625,-0.52388 -0.33337,-0.84773c0.14287,-0.32337 0.51435,-0.47625 0.84772,-0.33337l1.66688,0.7239c0.1524,-0.3048 0.26667,-0.6477 0.33337,-1.01918h-3.2385c-0.20955,0.36195 -0.48577,0.67628 -0.8382,0.90488c-0.10477,0.0666 -0.2286,0.0952 -0.3429,0.0952c-0.21907,0 -0.42862,-0.10478 -0.55245,-0.29528zM319.98495,204.7273c-0.09525,-0.66675 0.381,-1.29545 1.04775,-1.39065c1.38113,-0.1905 2.69558,-0.90488 3.3528,-1.81928c0.40005,-0.54292 1.17158,-0.66675 1.72403,-0.2667c0.55245,0.40005 0.66675,1.16205 0.27622,1.7145c-0.50482,0.69533 -1.20967,1.2954 -2.0193,1.77165v2.286c0,0.3429 -0.28575,0.62865 -0.62865,0.62865c-0.35242,0 -0.63817,-0.28575 -0.63817,-0.62865v-1.68592c-0.55245,0.20955 -1.13348,0.36195 -1.72403,0.43815c-0.05715,0.009 -0.11425,0.019 -0.17145,0.019c-0.60007,0 -1.1239,-0.44768 -1.2192,-1.0668zM312.28875,206.156h2.11455v-2.02883h-1.31445c-0.69533,0 -1.2573,-0.56197 -1.2573,-1.2573c0,-0.69532 0.56197,-1.2573 1.2573,-1.2573h3.91477c0.69533,0 1.2573,0.56198 1.2573,1.2573c0,0.69533 -0.56197,1.2573 -1.2573,1.2573h-1.31445v2.02883h2.11455c0.35243,0 0.6477,0.28575 0.6477,0.6477c0,0.35242 -0.29527,0.6477 -0.6477,0.6477h-5.51497c-0.35243,0 -0.6477,-0.29528 -0.6477,-0.6477c0,-0.36195 0.29527,-0.6477 0.6477,-0.6477zM306.94523,207.14665c-0.0762,-0.35243 0.14288,-0.69533 0.4953,-0.77153c0.98108,-0.21907 1.38113,-0.82867 1.38113,-2.12407v-2.75273c0,-0.36195 0.28575,-0.6477 0.6477,-0.6477c0.35242,0 0.6477,0.28575 0.6477,0.6477v2.75273c0,1.89547 -0.80963,3.03847 -2.40983,3.38137c-0.04765,0.009 -0.08575,0.019 -0.13335,0.019c-0.29527,0 -0.56195,-0.20955 -0.62865,-0.50482zM305.07833,202.45077c0,-0.69532 0.56198,-1.26682 1.2573,-1.26682c0.69533,0 1.2573,0.5715 1.2573,1.26682v2.02883c0,0.69532 -0.56197,1.2573 -1.2573,1.2573c-0.69532,0 -1.2573,-0.56198 -1.2573,-1.2573zM297.17259,204.5083c-0.1905,-0.3048 -0.10478,-0.70485 0.20002,-0.89535c0.5334,-0.3429 0.81915,-1.32397 0.81915,-2.11455c0,-0.36195 0.28575,-0.6477 0.6477,-0.6477c0.28575,0 0.5239,0.18098 0.6096,0.43815h2.83845c0.69533,0 1.26683,0.56198 1.26683,1.2573c0,2.60033 -1.1811,4.572 -3.49568,5.08635c-0.04767,0.009 -0.09527,0.019 -0.14287,0.019c-0.29528,0 -0.56195,-0.20955 -0.62865,-0.50482c-0.0762,-0.35243 0.14287,-0.69533 0.48577,-0.77153c1.35255,-0.3048 2.10503,-1.22872 2.37173,-2.57175h-3.24803c-0.20955,0.36195 -0.48577,0.67628 -0.8382,0.90488c-0.10477,0.0666 -0.2286,0.0952 -0.3429,0.0952c-0.20955,0 -0.4191,-0.10478 -0.54292,-0.29528zM289.11443,202.8699c0,-0.69532 0.5715,-1.2573 1.26682,-1.2573h3.90525c0.69533,0 1.2573,0.56198 1.2573,1.2573v4.13385c0,0.36195 -0.28575,0.6477 -0.63817,0.6477c-0.1905,0 -0.35243,-0.0762 -0.47625,-0.20002h-4.191c-0.12383,0.12382 -0.28575,0.20002 -0.47625,0.20002c-0.35243,0 -0.6477,-0.28575 -0.6477,-0.6477zM294.25793,206.15603v-2.02883h-3.8481v2.02883zM283.21846,201.93645c0,-0.36195 0.28575,-0.6477 0.63817,-0.6477c0.36195,0 0.6477,0.28575 0.6477,0.6477v1.1811l2.04788,0.36195c0.6858,0.12383 1.143,0.77153 1.01917,1.45733c-0.12382,0.6858 -0.77152,1.13347 -1.45732,1.00965l-1.60973,-0.29528v1.35255c0,0.36195 -0.28575,0.6477 -0.6477,0.6477c-0.35242,0 -0.63817,-0.28575 -0.63817,-0.6477zM276.36999,201.77453h1.32397c0.69533,0 1.26683,0.56197 1.26683,1.2573c0,0.69532 -0.5715,1.2573 -1.26683,1.2573h-1.32397c-0.69533,0 -1.2573,-0.56198 -1.2573,-1.2573c0,-0.69533 0.56197,-1.2573 1.2573,-1.2573zM277.42726,207.14668c-0.0762,-0.35243 0.14288,-0.69533 0.48578,-0.77153c1.74307,-0.39052 2.48602,-1.80975 2.48602,-3.82905c0,-0.35242 0.28575,-0.6477 0.6477,-0.6477c0.35243,0 0.6477,0.29528 0.6477,0.6477c0,2.60033 -1.1811,4.572 -3.49567,5.08635c-0.04758,0.009 -0.09528,0.019 -0.14288,0.019c-0.29527,0 -0.56195,-0.20955 -0.62865,-0.50482zM266.95929,204.72733c-0.09525,-0.66675 0.381,-1.29545 1.04775,-1.39065c1.38112,-0.1905 2.69557,-0.90488 3.3528,-1.81928c0.40005,-0.54292 1.17157,-0.66675 1.72402,-0.2667c0.55245,0.40005 0.66675,1.16205 0.27623,1.7145c-0.50483,0.69533 -1.20968,1.2954 -2.01931,1.77165v2.286c0,0.3429 -0.28574,0.62865 -0.62864,0.62865c-0.35243,0 -0.63818,-0.28575 -0.63818,-0.62865v-1.68592c-0.55245,0.20955 -1.13347,0.36195 -1.72402,0.43815c-0.05715,0.009 -0.11425,0.019 -0.17145,0.019c-0.60008,0 -1.1239,-0.44768 -1.2192,-1.0668zM260.6067,203.40985v1.5999h1.59991v-1.5999zM249.43334,205.71731c0.01905,-0.0381 1.0668,-1.59068 1.53352,-3.78143c0.1524,-0.66675 0.80962,-1.08585 1.47637,-0.94297c0.66675,0.14287 1.09538,0.8001 0.94298,1.46685c-0.31432,1.46685 -0.8382,2.69557 -1.2573,3.51472c0.58103,-0.038 1.26683,-0.0762 1.95263,-0.0952l-0.43815,-1.00965c-0.13335,-0.31432 0.00952,-0.69532 0.33337,-0.82867c0.32385,-0.14288 0.69533,0.00952 0.8382,0.32385l0.80963,1.87642v0.01l0.2286,0.51435c0.13335,0.32385 -0.00953,0.69532 -0.33338,0.82867c-0.08572,0.0382 -0.17145,0.0572 -0.24765,0.0572c-0.24765,0 -0.48577,-0.14287 -0.59055,-0.381l-0.0572,-0.13335c-1.22872,0.01905 -2.52412,0.11428 -3.32422,0.18098c-0.2286,0.21907 -0.54292,0.33337 -0.84772,0.33337c-0.23812,0 -0.48577,-0.06667 -0.70485,-0.21907c-0.56197,-0.39053 -0.70485,-1.15253 -0.31433,-1.7145zM247.81969,204.60048v-0.81856h-8.29717v0.81856zM230.81192,204.50828c-0.1905,-0.3048 -0.09525,-0.70485 0.20003,-0.89535c0.54292,-0.3429 0.82867,-1.32397 0.82867,-2.11455c0,-0.36195 0.28575,-0.6477 0.63818,-0.6477c0.36195,0 0.6477,0.28575 0.6477,0.6477v0.1143h2.0193c0.06668,0.46673 0.4572,0.82868 0.94297,0.82868c0.28575,0 0.54292,-0.12383 0.71437,-0.32385c0.1524,0.18097 0.381,0.29532 0.63818,0.31432c0.04763,0.14288 0.0762,0.28575 0.0762,0.43815c0,0.67628 -0.5334,1.2287 -1.20015,1.2573c-0.31432,1.89548 -1.45733,3.07658 -3.40043,3.5052c-0.04763,0.009 -0.09525,0.019 -0.14287,0.019c-0.29528,0 -0.56198,-0.20955 -0.62865,-0.50482c-0.0762,-0.35243 0.14288,-0.69533 0.4953,-0.77153c1.35255,-0.3048 2.10503,-0.9906 2.37172,-2.2479h-2.68605c-0.17145,0.2286 -0.381,0.42863 -0.61912,0.58103c-0.10477,0.0666 -0.2286,0.0952 -0.3429,0.0952c-0.21908,0 -0.42862,-0.10478 -0.55245,-0.29528zM236.08877,202.13646c0.35243,0 0.6477,-0.28575 0.6477,-0.63818c0,-0.36195 -0.29528,-0.6477 -0.6477,-0.6477c-0.36195,0 -0.6477,0.28575 -0.6477,0.6477c0,0.35243 0.28575,0.63818 0.6477,0.63818zM237.51752,202.13646c0.35243,0 0.6477,-0.28575 0.6477,-0.63818c0,-0.36195 -0.29527,-0.6477 -0.6477,-0.6477c-0.36195,0 -0.6477,0.28575 -0.6477,0.6477c0,0.35243 0.28575,0.63818 0.6477,0.63818z" fill="#ffb23b" stroke="none" stroke-width="15" stroke-linecap="square"/></g></g></g></svg>