<svg version="1.1" xmlns="http://www.w3.org/2000/svg" xmlns:xlink="http://www.w3.org/1999/xlink" width="94.72173" height="93.18578" viewBox="0,0,94.72173,93.18578"><g transform="translate(-192.63903,-133.36584)"><g data-paper-data="{&quot;isPaintingLayer&quot;:true}" fill-rule="evenodd" stroke-linecap="butt" stroke-linejoin="miter" stroke-miterlimit="10" stroke-dasharray="" stroke-dashoffset="0" style="mix-blend-mode: normal"><path d="M283.61077,181.08712c0,19.43761 -12.50145,35.89048 -29.84452,41.7145c-2.16815,0.4367 -2.96294,-0.94631 -2.96294,-2.11133c0,-1.45592 0.07219,-6.18783 0.07219,-12.08476c0,-4.1494 -1.37301,-6.77034 -2.96258,-8.15371c9.75543,-1.09176 19.94471,-4.80481 19.94471,-21.69439c0,-4.80481 -1.66212,-8.73593 -4.48032,-11.79354c0.43349,-1.09201 1.95087,-5.6056 -0.43384,-11.64802c0,0 -3.68518,-1.16481 -11.99577,4.51359c-3.46861,-0.94638 -7.22634,-1.45599 -10.91152,-1.45599c-3.68554,0 -7.44326,0.50961 -10.91184,1.45599c-8.31031,-5.6784 -11.99574,-4.51359 -11.99574,-4.51359c-2.38468,6.04242 -0.86715,10.55601 -0.43356,11.64802c-2.74602,3.05761 -4.48032,6.98873 -4.48032,11.79354c0,16.88957 10.1891,20.67517 19.87242,21.69439c-1.22849,1.09212 -2.38472,3.05764 -2.74602,5.89693c-2.52924,1.16466 -8.81613,3.05764 -12.71834,-3.64015c0,0 -2.31246,-4.2223 -6.72052,-4.51356c0,0 -4.26351,0 -0.28904,2.69384c0,0 2.89054,1.31011 4.84166,6.40618c0,0 2.5292,7.86246 14.66946,5.24188c0,3.63979 0.07226,7.13414 0.07226,8.15335c0,1.16502 -0.79489,2.54803 -2.9628,2.11133c-17.34322,-5.82403 -29.84477,-22.2769 -29.84477,-41.7145c0,-24.31525 19.51112,-43.97128 43.64715,-43.97128c24.06374,0 43.64679,19.65603 43.5746,43.97128z" fill="#ffffff" stroke="#ffffff" stroke-width="7.5"/><path d="M283.61078,181.08712c0,19.43761 -12.50145,35.89048 -29.84452,41.7145c-2.16815,0.4367 -2.96294,-0.94631 -2.96294,-2.11133c0,-1.45592 0.07219,-6.18783 0.07219,-12.08476c0,-4.1494 -1.37301,-6.77034 -2.96258,-8.15371c9.75543,-1.09176 19.94471,-4.80481 19.94471,-21.69439c0,-4.80481 -1.66212,-8.73593 -4.48032,-11.79354c0.43349,-1.09201 1.95087,-5.6056 -0.43384,-11.64802c0,0 -3.68518,-1.16481 -11.99577,4.51359c-3.46861,-0.94638 -7.22634,-1.45599 -10.91152,-1.45599c-3.68554,0 -7.44326,0.50961 -10.91184,1.45599c-8.31031,-5.6784 -11.99574,-4.51359 -11.99574,-4.51359c-2.38468,6.04242 -0.86715,10.55601 -0.43356,11.64802c-2.74602,3.05761 -4.48032,6.98873 -4.48032,11.79354c0,16.88957 10.1891,20.67517 19.87242,21.69439c-1.22849,1.09212 -2.38472,3.05764 -2.74602,5.89693c-2.52924,1.16466 -8.81613,3.05764 -12.71834,-3.64015c0,0 -2.31246,-4.2223 -6.72052,-4.51356c0,0 -4.26351,0 -0.28904,2.69384c0,0 2.89054,1.31011 4.84166,6.40618c0,0 2.5292,7.86246 14.66946,5.24188c0,3.63979 0.07226,7.13414 0.07226,8.15335c0,1.16502 -0.79489,2.54803 -2.9628,2.11133c-17.34322,-5.82403 -29.84477,-22.2769 -29.84477,-41.7145c0,-24.31525 19.51112,-43.97128 43.64715,-43.97128c24.06374,0 43.64679,19.65603 43.5746,43.97128z" fill="#000000" stroke="none" stroke-width="1"/></g></g></svg>